<?xml version="1.0" standalone="no"?>
<!DOCTYPE svg PUBLIC "-//W3C//DTD SVG 1.1//EN" "http://www.w3.org/Graphics/SVG/1.1/DTD/svg11.dtd" >
<!--
2013-9-30: Created.
-->
<svg>
<metadata>
Created by iconfont
</metadata>
<defs>

<font id="iconfont" horiz-adv-x="1024" >
  <font-face
    font-family="iconfont"
    font-weight="500"
    font-stretch="normal"
    units-per-em="1024"
    ascent="896"
    descent="-128"
  />
    <missing-glyph />
    
    <glyph glyph-name="shezhi2" unicode="&#58984;" d="M510.360576-136.388864c-245.480448 0-444.51328 199.003136-444.51328 444.566528 0 245.480448 199.032832 444.486656 444.51328 444.486656 245.482496 0 444.514304-199.006208 444.514304-444.486656C954.87488 62.613248 755.842048-136.388864 510.360576-136.388864L510.360576-136.388864zM510.360576 717.09568c-225.892352 0-408.916992-183.079936-408.916992-408.918016 0-225.891328 183.02464-408.998912 408.916992-408.998912 225.83808 0 408.91904 183.10656 408.91904 408.998912C919.279616 534.015744 736.198656 717.09568 510.360576 717.09568L510.360576 717.09568zM677.487616 236.062464c-18.936832-5.127168-30.22336-24.634368-25.122816-43.599872 2.90304-10.71616 10.688512-18.530304 20.130816-22.7072-32.612352-38.091776-78.326784-64.572416-130.200576-72.357888 2.224128 4.637696 3.6352 9.711616 3.6352 15.16544 0 19.615744-15.8976 35.597312-35.56864 35.597312-19.670016 0-35.567616-15.980544-35.567616-35.597312 0-5.4528 1.410048-10.52672 3.6352-15.16544-52.064256 7.786496-97.80736 34.427904-130.418688 72.628224 15.32928 7.109632 24.201216 23.985152 19.670016 40.859648-5.07392 18.991104-24.554496 30.22336-43.544576 25.177088-4.5312-1.247232-8.628224-3.36384-12.155904-6.023168-9.549824 24.20224-15.002624 50.51904-15.002624 78.137344 0 22.545408 4.205568 43.897856 10.689536 64.301056 8.682496-8.953856 21.460992-13.51168 34.429952-10.038272 18.991104 5.09952 30.22336 24.605696 25.122816 43.572224-3.798016 14.270464-15.735808 24.14592-29.4912 26.046464 32.828416 45.57824 82.614272 78.135296 140.701696 86.817792-2.225152-4.665344-3.6352-9.711616-3.6352-15.166464 0-19.61472 15.8976-35.515392 35.567616-35.515392 19.67104 0 35.56864 15.899648 35.56864 35.515392 0 5.454848-1.411072 10.50112-3.6352 15.166464 58.304512-8.735744 108.306432-41.537536 141.161472-87.389184-1.763328-0.242688-3.525632 0.10752-5.28896-0.35328-18.965504-5.046272-30.225408-24.525824-25.12384-43.516928 5.07392-18.991104 24.554496-30.22336 43.544576-25.177088 6.70208 1.815552 11.992064 5.860352 16.360448 10.578944 6.592512-20.508672 10.79808-42.10688 10.79808-64.841728 0-27.971584-5.669888-54.561792-15.465472-79.059968C699.81696 235.8464 688.74752 239.047424 677.487616 236.062464L677.487616 236.062464zM667.259904 312.654592c-4.422656 16.657408-20.04992 26.67008-36.65408 25.582592-4.992 19.372032-14.271488 37.060608-27.103232 51.712 9.305088 8.6272 13.97248 21.76 10.443776 34.946048-5.09952 18.991104-24.60672 30.22336-43.572224 25.177088-11.936768-3.25632-20.293632-12.454912-23.928832-23.41376-11.476992 3.499008-23.469056 5.940224-36.084736 5.940224-13.754368 0-26.7776-2.767872-39.095296-6.837248-5.4528 18.286592-24.4992 29.248512-43.138048 24.310784-18.96448-5.129216-30.224384-24.608768-25.12384-43.599872 2.062336-7.733248 6.89152-13.70112 12.751872-18.287616-12.128256-14.270464-20.809728-31.389696-25.58464-49.947648-4.992 0.896-10.174464 0.976896-15.355904-0.4608-18.96448-5.07392-30.224384-24.553472-25.150464-43.543552 5.046272-18.802688 24.255488-29.897728 43.056128-25.177088 5.07392-14.76096 12.561408-28.38016 22.41024-40.15616-10.635264-8.571904-15.925248-22.843392-12.127232-36.896768 5.07392-18.96448 24.554496-30.224384 43.5456-25.121792 12.15488 3.255296 20.51072 12.696576 24.092672 23.819264 12.561408-4.25984 25.747456-7.052288 39.718912-7.052288 12.61568 0 24.607744 2.439168 36.084736 5.967872 6.07744-17.31072 24.255488-27.619328 42.322944-22.734848 18.992128 5.070848 30.252032 24.578048 25.178112 43.543552-1.763328 6.592512-5.669888 11.748352-10.281984 16.14336 10.579968 12.09856 18.637824 26.3168 24.0384 41.782272 4.667392-0.705536 9.5488-0.543744 14.43328 0.758784C661.127168 274.181888 672.387072 293.689088 667.259904 312.654592L667.259904 312.654592zM510.360576 254.81088c-29.436928 0-53.36576 23.846912-53.36576 53.366784 0 29.40928 23.928832 53.286912 53.36576 53.286912 29.437952 0 53.366784-23.876608 53.366784-53.286912C563.72736 278.657792 539.798528 254.81088 510.360576 254.81088L510.360576 254.81088z"  horiz-adv-x="1024" />

    
    <glyph glyph-name="jiangtai" unicode="&#58918;" d="M718.513936 296.895289c3.700275-15.518438-6.326079-28.215622-22.279423-28.215622L326.599941 268.679667c-15.954367 0-25.979698 12.697183-22.279423 28.215622l51.421136 215.670991c3.700275 15.519462 19.780509 28.216645 35.734876 28.216645l239.887532 0c15.954367 0 32.034601-12.697183 35.734876-28.216645L718.513936 296.895289zM940.08224-22.606489c3.698229-15.519462-6.328126-28.216645-22.281469-28.216645L548.166199-50.823134c-15.954367 0-25.980721 12.697183-22.279423 28.216645l51.418067 215.672014c3.700275 15.519462 19.780509 28.216645 35.734876 28.216645L852.939531 221.282171c15.954367 0 32.034601-12.697183 35.733852-28.216645L940.08224-22.606489zM497.514589-22.606489c3.698229-15.519462-6.328126-28.216645-22.281469-28.216645L105.601618-50.823134c-15.954367 0-25.980721 12.697183-22.280446 28.216645l51.417043 215.672014c3.700275 15.519462 19.780509 28.216645 35.733852 28.216645l239.902882 0c15.954367 0 32.033577-12.697183 35.732829-28.216645L497.514589-22.606489zM901.085064 302.230808c5.731538-2.806929 5.27719-4.198625-1.006933-3.091408l-37.461193 6.596232c-6.285147 1.107217-13.300934-2.861164-15.592117-8.816806l-15.130605-39.344077c-2.290159-5.955642-3.470031-5.655813-2.619664 0.669242l5.428639 40.393989c0.850367 6.325056-3.136433 13.808494-8.859785 16.630772l-34.313503 16.922415c-5.723352 2.822278-5.242398 4.358261 1.069355 3.412726l37.175691-5.567809c6.311753-0.945535 13.407358 3.13234 15.768125 9.060353l15.07023 37.83163c2.361791 5.928013 3.664459 5.595438 2.89698-0.73985l-4.960988-40.924061c-0.76748-6.334265 3.292999-13.814634 9.023514-16.621563L901.085064 302.230808zM347.564415 538.397598c7.164167-3.507894 6.598278-5.246491-1.257643-3.864004l-48.828079 8.597819c-7.855922 1.38351-16.626679-3.576455-19.490913-11.022031l-19.697621-51.208289c-2.864234-7.445576-4.337795-7.067976-3.27458 0.837064l7.071046 52.602032c1.063215 7.906064-3.921309 17.261129-11.075243 20.788465l-44.719504 22.051225c-7.153934 3.52836-6.553253 5.448082 1.335415 4.266164l48.463782-7.260357c7.888667-1.181919 16.757662 3.91517 19.709901 11.32493l19.621896 49.26196c2.952238 7.410783 4.581342 6.994298 3.621481-0.924045l-6.458085-53.278437c-0.959861-7.919367 4.115738-17.268292 11.279904-20.777209L347.564415 538.397598zM211.184305 282.366388c4.298909-2.104941 3.959172-3.14769-0.7552-2.318812l-20.920472 3.683902c-4.713348 0.829901-9.976212-2.14485-11.694343-6.613628l-8.558933-22.25077c-1.718131-4.466732-2.602268-4.241604-1.964748 0.50142l3.058662 22.756283c0.63752 4.743024-2.352581 10.356882-6.64535 12.474103l-19.177781 9.458419c-4.291746 2.117221-3.931542 3.26844 0.802272 2.560312l20.72809-3.106758c4.732791-0.708128 10.055007 2.348488 11.82635 6.795776l8.488325 21.310352c1.771343 4.447289 2.749624 4.197602 2.173502-0.554632l-2.797719-23.086811c-0.576121-4.752234 2.469238-10.361999 6.768147-12.466939L211.184305 282.366388z"  horiz-adv-x="1024" />

    
    <glyph glyph-name="cuo" unicode="&#58946;" d="M512.8339264 796.92233387c-226.24399573 0-409.65102933-183.4070336-409.65102933-409.65102934S286.58993067-22.379723730000023 512.8339264-22.379723730000023 922.48495573 161.02730986999995 922.48495573 387.2713056 739.07792213 796.92233387 512.8339264 796.92233387zM512.8339264 21.82492160000004c-201.83091093 0-365.446384 163.61547307-365.446384 365.446384s163.61547307 365.446384 365.446384 365.446384 365.446384-163.61547307 365.446384-365.446384S714.66483733 21.82492160000004 512.8339264 21.82492160000004zM551.411615 387.066849l96.573499 96.574522c10.667967 10.665921 10.667967 27.960819 0 38.628786-10.666944 10.665921-27.961842 10.665921-38.628786 0l-96.573499-96.573499-96.573499 96.573499c-10.667967 10.665921-27.962865 10.665921-38.629809 0-10.666944-10.667967-10.666944-27.962865 0-38.628786l96.573499-96.574522-96.573499-96.574522c-10.666944-10.665921-10.666944-27.960819 0-38.628786 10.666944-10.665921 27.961842-10.665921 38.629809 0l96.573499 96.573499 96.573499-96.573499c10.666944-10.665921 27.961842-10.665921 38.628786 0 10.667967 10.667967 10.667967 27.962865 0 38.628786L551.411615 387.066849z"  horiz-adv-x="1024" />

    
    <glyph glyph-name="gengxin" unicode="&#58934;" d="M512-82.03377778000004c-257.38009941 0-466.03377778 208.65367837-466.03377778 466.03377778s208.65367837 466.03377778 466.03377778 466.03377778c257.38009941 0 466.03377778-208.65367837 466.03377778-466.03377778S769.38009941-82.03377778000004 512-82.03377778000004zM512 799.65034837c-229.54752683 0-415.65034837-186.10282155-415.65034837-415.65034837S282.45247317-31.65034836999996 512-31.65034836999996c229.57341696 0 415.65034837 186.10282155 415.65034837 415.65034837S741.57341696 799.65034837 512 799.65034837zM649.81654414 415.61262421l-112.54715733 113.94525867 0-404.62088192c0-14.21403022-11.49550023-25.73542059-25.68363918-25.73542059-14.18813895 0-25.68363918 11.52139037-25.68363918 25.73542059l0 402.60140259-111.12316474-111.2526188c-9.99383495-9.89027214-26.17556423-9.89027214-36.16939918 0-9.99383495 9.86438201-9.99383495 25.89076594 0 35.78103808l150.81370852 151.02083527c1.08741177 2.40784157 2.56318578 4.71211918 4.55677497 6.70570837 10.01972622 10.07150763 26.30501717 10.07150763 36.32474339 0l155.810626-157.75243378c10.04561749-10.07150763 10.04561749-26.38268985 0-36.42830734C676.12156245 405.56700786 659.83627037 405.56700786 649.81654414 415.61262421z"  horiz-adv-x="1024" />

    
    <glyph glyph-name="wode" unicode="&#58959;" d="M690.794617 598.94640466c0-98.762351-80.052221-178.729637-178.867784-178.729637-98.709139 0-178.76136 79.967286-178.76136 178.729637 0 98.857519 80.052221 178.992627 178.76136 178.992627C610.741373 777.93903166 690.794617 697.80392366 690.794617 598.94640466zM887.81295756 160.34200156999998c0-110.09938178-168.37344829-158.89033787-375.89708147-158.89033788-207.47304111 0-375.73000986 48.79095609-375.73000986 158.89033788 0 110.30528107 168.25696876 199.63241545 375.73000986 199.63241545C719.43833306 359.97441586 887.81295756 270.64728147999995 887.81295756 160.34200156999998z"  horiz-adv-x="1024" />

    
    <glyph glyph-name="shangcheng" unicode="&#58889;" d="M526.342878 812c-275.400205 0-498.656743-223.256538-498.656743-498.656743s223.256538-498.657764 498.656743-498.657764c275.400205 0 498.656743 223.257559 498.656743 498.657764C1024.999621 588.742441 801.743083 812 526.342878 812zM526.342878-147.020545c-254.250918 0-460.363802 206.110841-460.363802 460.36176 0 254.25296 206.110841 460.363802 460.363802 460.363802 254.251939 0 460.36176-206.110841 460.36176-460.363802C986.705659 59.090296 780.593796-147.020545 526.342878-147.020545zM796.932853 377.723348l0.453352 173.097819c0 4.219034-1.588775 8.25734-4.671365 11.252119-2.951894 2.949852-6.9902 4.673407-11.254161 4.673407L268.838851 566.746693c-8.802588 0-15.925526-7.168886-15.925526-15.925526l0-173.05085c0-0.681049 0.044927-1.316151 0.135801-1.952273 0-1.178307-0.135801-3.039706-0.135801-3.311309 0-26.996917 10.798767-51.408501 28.040444-69.603851l0-215.427024c0-8.75664 7.079033-15.972495 15.926547-15.972495l457.22199 0c8.800546 0 15.927568 7.168886 15.927568 15.972495L770.029874 304.039327c16.696429 18.059549 27.131697 42.059644 27.131697 68.513356L796.932853 377.723348zM284.674524 380.401597 284.674524 534.940567l480.951503 0-0.454373-157.806373c0-0.045948 0.18277-4.581512 0.18277-4.673407 0-38.338889-31.170003-69.510935-69.464987-69.510935s-69.511956 31.21493-69.511956 69.510935l0.228718 4.130202c0.318572 4.400783-1.453994 8.664744-4.44571 11.932147-3.085654 3.267403-7.533406 5.126759-11.934189 5.126759-4.44571 0-8.57387-1.996179-11.615617-5.172707-2.9958-3.221455-4.580491-7.713113-4.264982-12.113896l0.180728-3.856557c0-38.340931-31.170003-69.508892-69.510935-69.508892-38.293963 0-69.509913 31.213909-69.509913 69.508892l0.317551 4.12918c0.319593 4.401804-1.496879 8.665765-4.537606 11.933168-5.987516 6.397983-17.422405 6.44291-23.457911 0.090875-2.948831-3.175507-4.490637-7.395562-4.309909-11.751419 0-0.044927 0.226676-4.355857 0.226676-4.401804 0-38.340931-31.215951-69.508892-69.464987-69.508892-38.33991 0-69.601809 31.213909-69.601809 69.508892l0.272624 4.673407C284.992075 378.267574 284.947148 379.357049 284.674524 380.401597zM312.759895 103.355438 312.759895 280.308792c12.659144-5.716934 26.680387-9.12116 41.471512-9.12116 35.800526 0 67.333006 18.739577 85.345586 46.869874 18.058528-28.132339 49.636956-46.869874 85.436461-46.869874 35.890379 0 67.424902 18.739577 85.439524 46.915822 18.013601-28.178287 49.635935-46.915822 85.436461-46.915822 15.153602 0 29.4005 3.584954 42.378216 9.574512l0-177.453675L312.759895 103.308469 312.759895 103.355438z"  horiz-adv-x="1025" />

    
    <glyph glyph-name="weixin1" unicode="&#58941;" d="M247.46 105.63480000000004l-39.8628-132.33 145.2444 79.4928c52.9548-13.2096 106.1448-26.538 158.8656-26.538C763.5668 26.259599999999978 962 198.4524 962 410.508c0 211.6428-198.4332 384.1872-450.2928 384.1872C273.806 794.6952 62 622.1508 62 410.508 62 291.09360000000004 141.1388 185.36040000000003 247.46 105.63480000000004zM591.4328 529.6848c0 26.4192 26.1828 52.9548 66.2232 52.9548 26.3604 0 52.9548-26.5356 52.9548-52.9548 0-26.712-26.5944-52.9548-52.9548-52.9548C617.6168 476.73 591.4328 502.974 591.4328 529.6848zM300.1796 529.6848c0 26.4192 26.5956 52.9548 66.2676 52.9548 26.1984 0 52.6032-26.5356 52.6032-52.9548 0-26.712-26.4048-52.9548-52.6032-52.9548C326.7752 476.73 300.1796 502.974 300.1796 529.6848z"  horiz-adv-x="1024" />

    
    <glyph glyph-name="tubiao" unicode="&#58919;" d="M518.41024 732.16C339.5584 732.16 194.56 587.18208 194.56 408.33024c0-178.85184 144.9984-323.82976 323.85024-323.82976 178.85184 0 323.82976 144.97792 323.82976 323.82976C842.24 587.18208 697.26208 732.16 518.41024 732.16zM678.76864 397.43488c0-13.76256-11.1616-24.90368-24.92416-24.90368l-99.6352 0 0-99.65568c0-13.76256-11.1616-24.90368-24.90368-24.90368l-24.90368 0c-13.76256 0-24.90368 11.1616-24.90368 24.90368l0 99.65568-99.6352 0c-13.76256 0-24.90368 11.14112-24.90368 24.90368l0 24.90368c0 13.76256 11.1616 24.90368 24.90368 24.90368l99.6352 0 0 99.6352c0 13.76256 11.14112 24.90368 24.90368 24.90368l24.90368 0c13.76256 0 24.90368-11.1616 24.90368-24.90368l0-99.6352 99.6352 0c13.76256 0 24.92416-11.1616 24.92416-24.90368L678.76864 397.43488z"  horiz-adv-x="1024" />

    
    <glyph glyph-name="zhifuqianbao" unicode="&#59027;" d="M714.597743-30.07983 152.708496-30.07983c-50.968835 0-87.416955 41.932018-87.416955 93.445252L65.29154 531.899468c0 50.395784 36.449143 91.415013 87.416955 91.415013l561.889247 0c50.967812 0 97.43103-41.019229 97.43103-91.415013l0-121.939213c0-14.71412-11.94096-26.669406-26.669406-26.669406s-26.669406 11.955286-26.669406 26.669406L758.68996 531.899468c0 21.3564-22.177092 38.0762-44.092217 38.0762L152.708496 569.975668c-21.916149 0-34.079166-16.7198-34.079166-38.0762l0-468.533023c0-21.747303 12.891611-40.108486 34.079166-40.108486l561.889247 0c21.186532 0 44.092217 18.361183 44.092217 40.108486L758.68996 183.273373c0 14.739702 11.941983 26.669406 26.669406 26.669406s26.669406-11.929704 26.669406-26.669406l0-119.906927C812.028772 11.852188 765.565555-30.07983 714.597743-30.07983zM235.229954 63.756325c-43.611264 0-76.596516 35.706223-76.596516 79.618339L158.633439 369.958192c0 7.369851 5.963829 13.33368 13.334703 13.33368 7.357572 0 13.334703-5.963829 13.334703-13.33368l0-226.583528c0-29.195949 21.017686-52.947909 49.927109-52.947909 7.357572 0 13.334703-5.963829 13.334703-13.334703S242.586502 63.756325 235.229954 63.756325zM300.300972 63.262068l-13.334703 0c-7.357572 0-13.334703 5.963829-13.334703 13.332656 0 7.370875 5.977132 13.334703 13.334703 13.334703l13.334703 0c7.370875 0 13.334703-5.963829 13.334703-13.334703C313.635675 69.225897 307.671846 63.262068 300.300972 63.262068zM958.70846 262.369825c0-51.04763-41.383526-92.431156-92.430132-92.431156L677.770999 169.93867c-51.046606 0-92.430132 41.383526-92.430132 92.431156l0 55.160297c0 51.046606 41.383526 92.431156 92.430132 92.431156l188.507328 0c51.046606 0 92.430132-41.383526 92.430132-92.431156L958.70846 262.369825zM905.369647 317.530123c0 21.591761-17.500583 39.093367-39.09132 39.093367L677.770999 356.623489c-21.590737 0-39.09132-17.502629-39.09132-39.093367l0-55.160297c0-21.591761 17.501606-39.093367 39.09132-39.093367l188.507328 0c21.591761 0 39.09132 17.502629 39.09132 39.093367L905.369647 317.530123zM731.474109 290.966117c0-14.116509-11.460006-25.576515-25.562189-25.576515-14.116509 0-25.562189 11.460006-25.562189 25.576515s11.446703 25.548886 25.562189 25.548886C720.014102 316.515003 731.474109 305.082626 731.474109 290.966117zM650.346393 575.992709c-14.728446 0-26.669406 11.927657-26.669406 26.669406 0 79.037101-64.303538 143.340639-143.347802 143.340639-79.056544 0-143.359059-64.303538-143.359059-143.340639 0-14.740726-11.94096-26.669406-26.669406-26.669406s-26.669406 11.927657-26.669406 26.669406c0 108.441804 88.237647 196.679451 196.697871 196.679451 108.448968 0 196.685591-88.237647 196.685591-196.679451C677.015799 587.920366 665.074839 575.992709 650.346393 575.992709z"  horiz-adv-x="1024" />

    
    <glyph glyph-name="fabu1" unicode="&#58961;" d="M840.448949-6.748772 118.919001-6.748772 118.919001 711.879964l262.810941 0 0 55.261185L102.346786 767.141149c-21.333888 0-38.689993-17.525983-38.689993-39.067611l0-751.017931c0-21.542652 17.356106-39.069658 38.689993-39.069658l754.678473 0c21.332864 0 38.687947 17.527006 38.687947 39.069658l0 284.503003-55.261185 0L840.448949-6.748772 840.448949-6.748772zM564.294478 192.129071l-243.755042-0.00614 0.446183 244.785561L704.216823 820.849905c6.743911 6.731631 15.67678 10.813795 25.16226 11.503537 11.521957 0.837105 22.809566-3.368886 30.969801-11.540378l187.836863-188.176617c7.488914-7.503241 11.606896-17.472768 11.594615-28.070635-0.00921-10.601961-4.145612-20.565348-11.649877-28.054262L564.294478 192.129071zM371.799302 243.291718l171.356749 0.00307 360.693851 361.325261L732.251641 776.528387 372.114496 415.660566 371.799302 243.291718z"  horiz-adv-x="1025" />

    
    <glyph glyph-name="dui" unicode="&#59004;" d="M416.058904 119.205195c-10.475586 0-20.951171 3.996011-28.943193 11.989055L131.272789 387.037173c-15.985066 15.985066-15.985066 41.901319 0 57.886385s41.901319 15.985066 57.886385 0l226.898707-226.898707 418.780899 418.780899c15.985066 15.985066 41.901319 15.985066 57.886385 0s15.985066-41.901319 0-57.886385L445.002097 131.19425C437.010075 123.202229 426.53449 119.205195 416.058904 119.205195z"  horiz-adv-x="1024" />

    
    <glyph glyph-name="qianmoney113" unicode="&#59079;" d="M410.502095 584.078222c0 0-429.356698-563.492571 129.61727-575.154794 0 0 548.441397 0 13.653333 601.84381C454.257778 619.723175 410.502095 584.078222 410.502095 584.078222zM548.717714 310.564571c59.936508-21.162667 84.163048-48.88381 84.163048-94.281143 0-44.836571-31.760254-83.130921-89.713778-93.232762l0-51.378794-49.42019 0 0 47.85981c-33.759492 1.511619-66.519365 10.581333-85.682794 21.650286l15.140571 58.985651c21.170794-11.580952 50.899302-22.170413 83.683556-22.170413 28.728889 0 48.388063 11.085206 48.388063 31.240127 0 19.155302-16.132063 31.264508-53.434921 43.86946-53.930667 18.139429-90.737778 43.333079-90.737778 92.216889 0 44.365206 31.264508 79.124317 85.195175 89.713778l0 47.908571 49.371429 0 0-44.365206c33.767619-1.519746 56.466286-8.54146 73.094095-16.635937l-14.620444-56.962032c-13.084444 5.542603-36.27073 17.147937-72.606476 17.147937-32.735492 0-43.333079-14.108444-43.333079-28.233143C488.212317 337.286095 505.864127 326.696635 548.717714 310.564571zM544.987429 637.545651c0 0 37.254095 115.045587-6.485333 119.905524-36.831492 4.087873-93.175873 3.258921-150.69054-36.343873 17.944381-22.966857 38.091175-45.48673 38.091175-45.48673l-48.891937 37.571048c-7.208635-5.583238-14.409143-11.767873-21.577143-18.692063l56.701968-82.310095C412.127492 612.197587 477.947937 647.281778 544.987429 637.545651zM225.263746 254.252698l-113.452698 0 0 34.531556c22.584889 9.362286 47.737905 33.670095 47.737905 62.62654 0 5.965206-0.406349 11.077079-1.275937 17.034159l-41.772698 0 0 43.910095 34.100825 0c-2.121143 10.654476-3.413333 23.023746-3.413333 34.507175 0 53.719365 39.212698 89.071746 96.304762 89.071746 23.462603 0 40.911238-5.087492 50.265397-10.223746l-10.654476-49.005714c-8.078222 4.68927-20.016762 7.68-35.75873 7.68-30.256762 0-39.627175-19.61854-39.627175-40.082286 0-11.068952 1.235302-21.300825 3.811556-31.955302l58.408635 0 0-1.381587c19.423492 44.722794 42.105905 85.861587 62.325841 119.100952-24.478476 34.312127-54.580825 71.891302-91.209143 113.111365-77.750857 7.013587-111.932952-20.837587-111.932952-20.837587s-334.108444-438.507683 98.710349-449.316571C222.817524 199.070476 222.362413 226.450286 225.263746 254.252698zM213.227683 338.204444c-3.819683-10.67073-10.654476-21.317079-20.853841-30.264889l0-0.837079 42.06527 0c4.916825 20.618159 11.255873 41.20381 18.537651 61.334349l-35.888762 0C217.502476 357.790476 216.665397 348.013714 213.227683 338.204444zM234.179048 664.137143c0 0 29.110857 89.892571-5.054984 93.671619-28.785778 3.202032-72.817778 2.543746-117.751873-28.395683 14.035302-17.936254 29.769143-35.531175 29.769143-35.531175l-38.196825 29.338413c-5.632-4.356063-11.264-9.183492-16.871619-14.587937l44.308317-64.300698C130.381206 644.331683 181.808762 671.727746 234.179048 664.137143zM834.958222 643.193905c-77.74273 7.013587-111.932952-20.837587-111.932952-20.837587s-28.988952-38.05054-58.823111-91.99746c18.285714-23.917714 34.832254-47.095873 49.82654-69.591365 4.380444 7.834413 9.419175 15.067429 15.075556 21.601524 24.291556 27.266032 58.359873 43.471238 98.434032 43.471238 25.981968 0 48.566857-5.948952 63.91873-12.791873l-11.946667-48.583111c-11.060825 4.681143-28.558222 10.231873-47.290921 10.231873-20.463746 0-39.204571-6.802286-52.419048-22.999365-5.965206-6.834794-10.662603-16.619683-13.645206-27.680508l106.114032 0 0-30.264889L754.054095 393.752381c2.218667-3.323937 9.614222-16.083302 11.629714-20.024889l106.585397 0 0-30.248635L780.182349 343.478857c2.917587-6.550349 5.705143-13.035683 8.257016-19.399111 3.250794-8.159492 6.135873-16.180825 8.809651-24.112762 11.036444-5.575111 23.82019-8.061968 37.091556-8.061968 19.602286 0 39.627175 6.38781 48.583111 11.068952l10.24-47.290921c-14.506667-8.11073-39.212698-16.197079-66.486857-16.197079-4.908698 0-9.760508 0.251937-14.563556 0.723302 3.584-23.698286 3.93346-46.006857 1.178413-66.901333 3.624635-0.146286 7.281778-0.251937 11.012063-0.333206C824.303746 172.966603 1252.807111 172.966603 834.958222 643.193905zM828.090921 664.137143c0 0 29.110857 89.892571-5.054984 93.671619-28.769524 3.202032-72.817778 2.543746-117.735619-28.395683 14.027175-17.936254 29.761016-35.531175 29.761016-35.531175l-38.196825 29.338413c-5.632-4.356063-11.272127-9.183492-16.871619-14.587937l44.30019-64.300698C724.284952 644.331683 775.712508 671.727746 828.090921 664.137143z"  horiz-adv-x="1024" />

    
    <glyph glyph-name="shensu" unicode="&#58962;" d="M610.773607 662.849916l0-137.50677L579.663052 255.499347l-3.569292 0c-6.826476-25.476231-32.897248-44.465724-64.092737-44.465724-31.196513 0-57.267285 18.990516-64.09376 44.465724l-3.569292 0-31.109532 269.843798L413.228439 662.849916c-0.00614 0.402159-0.065492 0.792039-0.065492 1.196245 0 0.402159 0.059352 0.792039 0.065492 1.196245l0 7.077186 0.388856 0c4.564969 46.154179 46.842865 82.328054 98.384751 82.328054 51.53984 0 93.817736-36.173874 98.382705-82.328054l0.390903 0 0-7.077186c0.005117-0.403183 0.064468-0.794086 0.064468-1.196245C610.838076 663.642978 610.778724 663.252075 610.773607 662.849916zM512.001023 161.614074c45.48903 0 82.363869-33.189913 82.363869-74.131371 0-40.939411-36.874839-74.129324-82.363869-74.129324s-82.365916 33.189913-82.365916 74.129324C429.634084 128.423137 466.51097 161.614074 512.001023 161.614074z"  horiz-adv-x="1024" />

    
    <glyph glyph-name="wallet" unicode="&#58996;" d="M511.176 832.943c-248.402 0-449.735-201.353-449.735-449.735 0-248.387 201.332-449.74 449.735-449.74 248.367 0 449.739 201.353 449.739 449.74 0 248.382-201.372 449.735-449.739 449.735v0zM511.176-29.048c-227.685 0-412.257 184.565-412.257 412.256 0 227.689 184.574 412.255 412.257 412.255 227.688 0 412.26-184.567 412.26-412.255-0-227.691-184.573-412.256-412.26-412.256v0zM634.167 660.869l-83.487-153.837c-22.279-41.681-35.867-69.413-40.857-83.135h-1.442c-14.678 33.397-56.108 112.362-124.326 236.971h-78.53l146.026-250.831h-119.724v-55.45h140.341v-76.379h-140.341v-56.102h140.341v-111.235h69.634l-0 111.236h135.382v56.102h-135.382v76.379h135.376v55.45l-116.183 0 147.448 250.831h-74.278z"  horiz-adv-x="1024" />

    
    <glyph glyph-name="renminbi" unicode="&#58989;" d="M851.2 838.4 608 430.933333l211.2 0 0-72.533333L561.066667 358.4l0-115.2 260.266667 0L821.333333 170.666667 561.066667 170.666667l0-241.066667-96 0L465.066667 170.666667 206.933333 170.666667l0 72.533333 258.133333 0 0 115.2L206.933333 358.4l0 72.533333 211.2 0L172.8 838.4l106.666667 0 234.666667-401.066667L746.666667 838.4 851.2 838.4z"  horiz-adv-x="1024" />

    
    <glyph glyph-name="tuiguangzhuanqian" unicode="&#58897;" d="M684.8 620.8c147.2 0 256 51.2 275.2 102.4l0 0C960 787.2 832 832 684.8 832 531.2 832 403.2 787.2 403.2 723.2l0 0C422.4 672 531.2 620.8 684.8 620.8zM684.8 204.8c-19.2 0-44.8 0-64 6.4l0-140.8c19.2 0 44.8 0 64 0 153.6 0 275.2 38.4 275.2 89.6L960 275.2C896 230.4 800 204.8 684.8 204.8zM684.8 390.4c-19.2 0-44.8 0-64 6.4l0-140.8c19.2 0 44.8-6.4 64-6.4 147.2 0 256 51.2 275.2 102.4L960 460.8C896 416 800 390.4 684.8 390.4zM684.8 576C563.2 576 467.2 608 403.2 646.4L403.2 576c128-12.8 243.2-57.6 249.6-140.8 6.4 0 19.2 0 25.6 0 147.2 0 256 51.2 275.2 102.4L953.6 646.4C896 608 800 576 684.8 576zM339.2 332.8c147.2 0 256 51.2 275.2 102.4l0 0c0 57.6-121.6 108.8-275.2 108.8C192 537.6 64 492.8 64 435.2l0 0C83.2 377.6 192 332.8 339.2 332.8zM339.2 128c147.2 0 256 51.2 275.2 102.4L614.4 345.6C556.8 300.8 460.8 275.2 339.2 275.2S128 300.8 64 345.6l0-115.2C83.2 179.2 192 128 339.2 128zM339.2 70.4c-115.2 0-217.6 25.6-275.2 70.4l0-115.2C64-25.6 192-64 339.2-64s275.2 38.4 275.2 89.6l0 115.2C556.8 102.4 460.8 70.4 339.2 70.4z"  horiz-adv-x="1024" />

    
    <glyph glyph-name="neironggengxin" unicode="&#58917;" d="M511.94890045 767.24475288C348.02234532 767.24475288 202.23604131 663.0021801 149.24606633 507.91580368L201.06075691 490.23544551C246.53913475 623.19582535 371.42582464 712.46630262 512 712.46630262 674.70017267 712.46630262 810.16441774 593.55823088 836.0206635 438.06305957L788.85600949 469.54022884 758.50302505 424.01075221 852.67903592 361.20971226999995C857.27797294 358.19485306 862.54120039 356.61077523999995 867.85552812 356.61077523999995 872.30116726 356.61077523999995 876.74680638 357.68386054999996 880.78365063 359.83003117 889.6749289 364.58226609999997 895.24475288 373.88233851999996 895.24475288 384 895.19365334 595.34670615 723.29560734 767.24475288 511.94890045 767.24475288L511.94890045 767.24475288ZM511.94890045 55.533697380000035C349.29982733 55.533697380000035 213.83558226 174.44176912 187.9793365 329.93694043000005L235.14399051 298.45977115999995 265.49697495 343.98924779000004 171.32096408 406.79028773C162.88957954 412.41121125 152.10762764 412.87110496 143.21634937 408.11887002 134.3250711 403.4177339 128.75524712 394.11766148 128.75524712 384 128.75524712 172.65329384999995 300.65329385 0.7552471200000355 511.94890045 0.7552471200000355 675.97765468 0.7552471200000355 821.76395869 104.99781989999997 874.70283413 260.08419632000005L822.88814354 277.76455449C777.5119648 144.80417465000005 652.57417536 55.533697380000035 511.94890045 55.533697380000035L511.94890045 55.533697380000035ZM484.61077524 526.31155182L676.23315168 526.31155182 676.23315168 487.98707653 484.61077524 487.98707653 484.61077524 526.31155182 484.61077524 526.31155182 484.61077524 526.31155182ZM347.76684832 548.2842504800001L429.88342453 548.2842504800001 429.88342453 466.11657547 347.76684832 466.11657547 347.76684832 548.2842504800001 347.76684832 548.2842504800001ZM484.61077524 389.46762489L676.23315168 389.46762489 676.23315168 351.14314961 484.61077524 351.14314961 484.61077524 389.46762489 484.61077524 389.46762489 484.61077524 389.46762489ZM347.76684832 411.38922476L429.88342453 411.38922476 429.88342453 329.22154975 347.76684832 329.22154975 347.76684832 411.38922476 347.76684832 411.38922476ZM484.61077524 252.57259917L676.23315168 252.57259917 676.23315168 214.24812387999998 484.61077524 214.24812387999998 484.61077524 252.57259917 484.61077524 252.57259917 484.61077524 252.57259917ZM347.76684832 274.49419903L429.88342453 274.49419903 429.88342453 192.37762355999996 347.76684832 192.37762355999996 347.76684832 274.49419903 347.76684832 274.49419903Z"  horiz-adv-x="1024" />

    
    <glyph glyph-name="jianhaob" unicode="&#59082;" d="M735.971028 326.358185l-488.874303 0c-16.993023 0-30.780027 13.776771-30.780027 30.780027 0 17.003256 13.787004 30.780027 30.780027 30.780027l488.874303 0c16.993023 0 30.780027-13.776771 30.780027-30.780027C766.751055 340.134956 752.96405 326.358185 735.971028 326.358185z"  horiz-adv-x="1024" />

    
    <glyph glyph-name="zhifubao" unicode="&#58981;" d="M294.47414218 334.14710001000003C285.13671875 326.63245156000005 275.12865156 315.66140859999996 272.22252891 301.71545936999996 268.26745078 282.66230077 271.39712111 258.81145938 289.77963672 240.10222032000001 312.04844609 217.42070704000002 345.89015781 211.21295468000005 360.50675079 210.14680311999996 400.21229609 207.27507188000004 442.53163203 226.96448281000005 474.43019687 249.42244843000003 486.93168282 258.24399217999996 508.34069297 275.95586329 528.80392343 303.28029453 482.94221327 326.95917578 425.69675625 353.14867109 364.49622109 350.58646796999994 333.23390781 349.27957266 310.84472656 342.79668359000004 294.47414218 334.14710001000003ZM876.03914765 229.44242499999996C896.27882968 276.95495078 907.5078125 329.17917812999997 907.5078125 384 907.5078125 602.07956875 730.09676484 779.5078125 512 779.5078125 293.90323516 779.5078125 116.4921875 602.07956875 116.4921875 384 116.4921875 165.90323516 293.90323516-11.5078125 512-11.5078125 643.61812187-11.5078125 760.34451406 53.16631251000001 832.29254453 152.35279375000005 764.31678828 186.14291795999998 652.28490156 241.75475546999996 583.27738594 275.40731171000004 550.34706172 237.86846093999998 501.6652086 200.24363125000002 446.67242734 183.87304687000005 412.12567968 173.60703983999997 380.98373828 169.68635389999997 348.41452969 176.34120234 316.17204454 182.94446329000004 292.42438047 198.04254453 278.58160703 213.17501718999995 271.53125 220.89601717999994 263.4319375 230.71492890000002 257.56810468 242.39100702999997 258.11837655 240.91215157 258.49668828 240.03515625 258.49668828 240.03515625 258.49668828 240.03515625 255.12627343 245.84740155999998 252.546875 255.09884531 251.2227836 259.56980312999997 250.32859219 264.22991641 249.96747656 269.11357812000006 249.69234062 272.31203281 249.62355625 275.68244765 249.8127125 279.19042969 249.52038046 285.14024297000003 249.76112422 291.38238828 251.10241171 297.77929687000005 254.33525782 313.41045312000006 261.00730313 331.6210086 278.27207891 348.52466874000004 316.17204454 385.63361952 366.9346125 387.62835391 393.22728437 387.47359062 432.17620547 387.25004219 499.85962968 370.20881483000005 556.84714688 350.05511172 572.63306719 383.67327578000004 582.76150625 419.63009531 589.29598359 443.60130781L352.33521562 443.60130781 352.33521562 469.22333594 474.01405391 469.22333594 474.01405391 520.46739141 326.7131875 520.46739141 326.7131875 546.08941953 474.01405391 546.08941953 474.01405391 597.3162789C474.01405391 604.3494398299999 475.40692968 610.12729296 486.82506797 610.12729296L544.46603281 610.12729296 544.46603281 546.08941953 704.59510859 546.08941953 704.59510859 520.46739141 544.46603281 520.46739141 544.46603281 469.22333594 672.55897578 469.22333594C672.55897578 469.22333594 659.69637421 397.51604922 619.47494921 326.84052342999996 708.73934296 294.95915391999995 834.32167109 245.84740155999998 876.03914765 229.44242499999996Z"  horiz-adv-x="1024" />

    
    <glyph glyph-name="erweima" unicode="&#59031;" d="M423.836543 781.180951l0 0.274246L204.08256 781.455197c-45.911656 0-83.09451-36.932144-83.356476-82.59309l-0.023536 0 0-207.579709c0-2.468215 0.500397-4.782933 1.239224-7.000438 6.678096-39.245839 40.831964-69.164243 82.140789-69.164243L423.836543 415.117718l0 0.237407c38.877449 2.432399 70.477144 31.363312 76.798107 68.926836 0.763386 2.217505 1.289366 4.532223 1.289366 7.000438L501.924016 698.862107l-0.025583 0C501.683539 742.746594 467.244168 778.461003 423.836543 781.180951zM458.038506 502.53979c0-24.14798-19.654642-43.705408-43.88551-43.705408L208.445938 458.834382c-24.230867 0-43.858904 19.557428-43.858904 43.705408L164.587034 694.019823c0 24.149003 19.628036 43.717687 43.858904 43.717687l205.708082 0c24.230867 0 43.88551-19.569708 43.88551-43.717687L458.039529 502.53979zM902.246517 700.888254c-0.215918 42.799782-33.818223 77.644381-76.153424 80.304977l0 0.261966L634.384863 781.455197c-44.790112 0-81.040734-36.037774-81.304747-80.56592l-0.023536 0 0-202.511273c0-2.407839 0.476861-4.673439 1.240247-6.831592 6.487761-38.292118 39.830147-67.472717 80.08906-67.472717l191.70823 0 0 0.226151c37.921681 2.385327 68.734454 30.613228 74.961272 67.246567 0.738827 2.158153 1.216711 4.423753 1.216711 6.831592L902.2721 700.888254 902.246517 700.888254zM859.461061 509.361149c0-23.551392-19.152199-42.643216-42.813085-42.643216L638.678656 466.717933c-23.658839 0-42.834574 19.091824-42.834574 42.643216L595.844082 696.167742c0 23.552415 19.175735 42.643216 42.834574 42.643216l177.969321 0c23.660886 0 42.813085-19.091824 42.813085-42.643216L859.461061 509.361149zM415.680792 356.112859l0 0.260943L201.839473 356.373803c-44.670385 0-80.874959-35.94363-81.114412-80.375585l-0.023536 0 0-201.974038c0-2.420119 0.477884-4.687766 1.215688-6.821359 6.464225-38.181601 39.73498-67.316152 79.922261-67.316152L415.680792-0.113331l0 0.236384c37.824467 2.350534 68.567655 30.529317 74.744331 67.079768 0.762363 2.133593 1.24127 4.40124 1.24127 6.821359L491.666394 275.998217l-0.049119 0C491.402381 318.691575 457.919802 353.46352 415.680792 356.112859zM448.975083 84.95923c0-23.493064-19.127639-42.524512-42.691311-42.524512L212.953601 42.434717c0 0-0.022513 0-0.047072 0l-6.822382 0c-23.563672 0-42.690288 19.031449-42.690288 42.524512L163.393859 271.312498c0 23.469528 19.126616 42.525536 42.690288 42.525536l200.200648 0c23.563672 0 42.691311-19.056008 42.691311-42.525536L448.976106 84.95923zM721.154066 142.879384c-14.741749 0-26.66736-11.508102-26.66736-25.699312l0-51.395554c0-14.228049 11.924587-25.721825 26.66736-25.721825 14.736633 0 26.663266 11.492752 26.663266 25.721825l0 51.395554C747.817332 131.371282 735.891721 142.879384 721.154066 142.879384zM834.775846 168.601208c-14.739702 0-26.665313-11.494799-26.665313-25.697265l0-77.118402c0-14.214746 11.924587-25.701358 26.665313-25.701358 14.763239 0 26.688849 11.487635 26.688849 25.701358l0 77.118402C861.464695 157.105387 849.538061 168.601208 834.775846 168.601208zM834.775846 322.827779c-14.739702 0-26.665313-11.506055-26.665313-25.722848l0-51.395554c0-14.189164 11.924587-25.697265 26.665313-25.697265 14.763239 0 26.688849 11.508102 26.688849 25.697265l0 51.395554C861.464695 311.320701 849.538061 322.827779 834.775846 322.827779zM721.154066 322.804243c-14.741749 0-26.66736-11.507078-26.66736-25.709545L694.486706 194.264705c0-14.192234 11.924587-25.686009 26.66736-25.686009 14.736633 0 26.663266 11.492752 26.663266 25.686009L747.817332 297.094698C747.817332 311.297165 735.891721 322.804243 721.154066 322.804243zM606.050538 194.264705c-14.68956 0-26.640754-11.435447-26.640754-25.663496l0-102.81669c0-14.214746 11.951193-25.701358 26.640754-25.701358 14.787798 0 26.712385 11.487635 26.712385 25.701358L632.762923 168.601208C632.763946 182.829258 620.838336 194.264705 606.050538 194.264705zM606.050538 322.827779c-14.68956 0-26.640754-11.506055-26.640754-25.722848l0-25.709545c0-14.201443 11.951193-25.686009 26.640754-25.686009 14.787798 0 26.712385 11.484565 26.712385 25.686009l0 25.709545C632.763946 311.320701 620.838336 322.827779 606.050538 322.827779z"  horiz-adv-x="1024" />

    
    <glyph glyph-name="kaiguananniu1" unicode="&#59045;" d="M731.191164 611.67028 292.091498 611.67028C166.872588 611.67028 64.421218 509.21891 64.421218 384l0 0c0-125.21891 102.45137-227.67028 227.67028-227.67028l439.099666 0c125.21891 0 227.67028 102.45137 227.67028 227.67028l0 0C958.860421 509.21891 856.409051 611.67028 731.191164 611.67028zM734.661196 175.999712c-114.875331 0-208.001311 93.124957-208.001311 208.001311s93.124957 208.001311 208.001311 208.001311 208.001311-93.124957 208.001311-208.001311S849.536526 175.999712 734.661196 175.999712z"  horiz-adv-x="1024" />

    
    <glyph glyph-name="saoyisao" unicode="&#58896;" d="M846.001 224.125l60.75 0 0-86.813c0-81.75-66.25-148-148.125-148l-86.75 0L671.876 50l86.75 0c48.25 0 87.375 39.125 87.375 87.313L846.001 224.125zM178.063 137.312l0 86.813L117.376 224.125l0-86.813c0-81.75 66.25-148 148-148L352.188-10.688 352.188 50l-86.813 0C217.251 50 178.063 89.125 178.063 137.312zM178.063 630.687c0 48.188 39.188 87.25 87.313 87.25L352.188 717.937l0 60.75-86.813 0c-81.75 0-148-66.25-148-148l0-86.813 60.688 0L178.063 630.687zM117.376 354l789.375 0 0 60.063L117.376 414.063 117.376 354zM758.626 778.687l-86.75 0 0-60.75 86.75 0c48.25 0 87.375-39.063 87.375-87.25l0-86.813 60.75 0 0 86.813C906.751 712.437 840.501 778.687 758.626 778.687z"  horiz-adv-x="1024" />

    
    <glyph glyph-name="jiaoyi" unicode="&#58963;" d="M740.503251 183.272349c-152.407132 0-304.494992 0-457.010595 0 0 133.759423 0 267.493264 0 401.458371 152.36006 0 304.613696 0 457.010595 0C740.503251 450.796312 740.503251 317.174012 740.503251 183.272349zM331.440691 372.340449c0-46.89403 0-93.294826 0-139.750881 120.80232 0 241.198387 0 361.625154 0 0 101.508905 0 202.620767 0 303.887149-120.516818 0-240.720503 0-360.949772 0 0-11.215436 0-22.008246 0-33.307593 44.369533 0 88.367607 0 132.411729 0 0-16.391319 0-32.265868 0-48.702212-44.944632 0-89.483011 0-134.038786 0-0.39295-8.596795-0.73678-16.630772-1.134847-24.661679-0.38988-7.847735 0.399089-8.710382 8.432043-8.583492 14.21884 0.225127 28.434609 0.562818 42.654472 0.727571 9.969049 0.115634 19.940145 0.022513 30.015617 0.022513 0-17.024745 0-33.083489 0-49.631374C383.996674 372.340449 357.89418 372.340449 331.440691 372.340449zM511.997953-63.370027c-246.681262 0-447.367981 200.690812-447.367981 447.370027 0 246.681262 200.686718 447.370027 447.367981 447.370027s447.372074-200.688765 447.372074-447.370027C959.370027 137.321808 758.678192-63.370027 511.997953-63.370027zM511.997953 778.653385c-217.61118 0-394.651338-177.040159-394.651338-394.653385S294.386774-10.652362 511.997953-10.652362c217.615273 0 394.655432 177.040159 394.655432 394.653385S729.613226 778.653385 511.997953 778.653385z"  horiz-adv-x="1024" />

    
    <glyph glyph-name="dingdan2" unicode="&#58899;" d="M793.346783 769.718899 742.289943 769.718899c-14.120602 0-30.417777-8.743128-30.417777-22.945595 0-14.207583 16.297175-28.41312 30.417777-28.41312l51.055816 0c30.417777 0 51.055816-20.762883 51.055816-51.355645l0-591.143525c0-30.592762-20.638039-51.355645-51.055816-51.355645L243.683998 24.505369c-30.41266 0-64.088644 20.762883-64.088644 51.355645l0 591.143525c0 30.592762 20.640086 51.355645 51.055816 51.355645l64.088644 0c14.124695 0 19.555381 14.205537 19.555381 28.41312 0 14.20349-5.429663 22.945595-19.555381 22.945595l-64.088644 0c-71.694879 0-102.110609-44.800345-102.110609-103.804181l0-584.588225c0-63.376423 38.018895-108.176768 107.541295-108.176768l551.83117 0c69.527516 0 107.546412 37.153178 107.546412 108.176768L895.459439 665.914718C895.459439 724.918553 859.611999 769.718899 793.346783 769.718899L793.346783 769.718899zM294.739814 538.067958c0-14.207583 11.95324-26.226315 26.069749-26.226315l383.461485 0c14.119579 0 26.070772 12.018731 26.070772 26.226315 0 14.204513-11.951193 26.226315-26.070772 26.226315L320.809563 564.294272C306.693054 564.294272 294.739814 552.272471 294.739814 538.067958L294.739814 538.067958zM703.18532 422.240953 320.809563 422.240953c-14.116509 0-26.069749-12.017708-26.069749-26.226315 0-14.20349 11.95324-26.220175 26.069749-26.220175l383.461485 0c14.119579 0 26.070772 12.017708 26.070772 26.220175C729.259162 411.314089 717.306946 422.240953 703.18532 422.240953L703.18532 422.240953zM703.18532 268.177088 320.809563 268.177088c-14.116509 0-26.069749-12.022825-26.069749-26.226315 0-14.204513 11.95324-26.222221 26.069749-26.222221l383.461485 0c14.119579 0 26.070772 12.017708 26.070772 26.222221C729.259162 257.248178 717.306946 268.177088 703.18532 268.177088L703.18532 268.177088zM424.009993 705.246515l178.152493 0c20.638039 0 38.019918 20.761859 38.019918 44.803415 0 24.034393-17.379832 44.800345-39.108716 44.800345L424.009993 794.850276c-21.725814 0-39.1036-20.759813-39.1036-44.800345C384.906393 726.008374 402.284179 705.246515 424.009993 705.246515L424.009993 705.246515z"  horiz-adv-x="1024" />

    
    <glyph glyph-name="icon128" unicode="&#59005;" d="M677.907611 383.930415 346.093413 383.930415c-15.278985 0-27.693736-12.579503-27.693736-28.084639 0-15.561417 12.414751-28.085662 27.693736-28.085662l331.814198 0c15.278985 0 27.635407 12.524245 27.635407 28.085662C705.543018 371.349889 693.185572 383.930415 677.907611 383.930415L677.907611 383.930415 677.907611 383.930415 677.907611 383.930415zM677.907611 215.467609 346.093413 215.467609c-15.278985 0-27.693736-12.58462-27.693736-28.084639 0-15.561417 12.414751-28.089755 27.693736-28.089755l331.814198 0c15.278985 0 27.635407 12.527314 27.635407 28.089755C705.543018 202.884013 693.185572 215.467609 677.907611 215.467609L677.907611 215.467609 677.907611 215.467609 677.907611 215.467609zM705.543018 608.566592c-30.500665 0-55.272861 25.168216-55.272861 56.174394L650.270157 777.032468l165.879981-168.465876L705.543018 608.566592 705.543018 608.566592 705.543018 608.566592 705.543018 608.566592zM820.080657 37.341722c0-31.005155-46.454008-51.342342-77.010955-51.342342L255.203356-14.00062c-30.500665 0-51.342342 20.337187-51.342342 51.342342L203.861014 730.630648c0 31.010271 20.841677 51.342342 51.342342 51.342342l333.837274 0c-0.50449-67.239404 5.898337-117.232005 5.898337-117.232005 0-62.072731 49.545416-112.344694 110.603027-112.344694l114.537639-1.518586L820.079634 37.341722 820.080657 37.341722 820.080657 37.341722 820.080657 37.341722zM650.270157 833.205838l0-0.787946c-3.538593 0-18.313088 1.349741-55.330166 0.787946l-331.817268 0c-61.114916 0-110.603027-50.332339-110.603027-112.347764l0-673.90853c0-62.015426 49.488111-112.291482 110.603027-112.291482l497.755578 0c61.058634 0 110.603027 50.276057 110.603027 112.291482L871.481328 608.566592 650.270157 833.205838 650.270157 833.205838 650.270157 833.205838 650.270157 833.205838zM650.270157 833.205838"  horiz-adv-x="1024" />

    
    <glyph glyph-name="mingxi" unicode="&#59677;" d="M923.706337 557.849585c-23.637417 54.945782-55.438271 102.397747-95.398467 142.359992-39.963268 39.962244-87.587246 71.761051-142.87603 95.396419C630.146128 819.243413 572.37135 831.062121 512.095221 831.062121c-60.272034 0-118.05193-11.818708-173.336618-35.456125-55.28776-23.635369-102.911738-55.435199-142.873982-95.396419s-71.759003-87.584175-95.39642-142.871935c-23.635369-55.28776-35.454077-113.064585-35.454077-173.33969 0-60.274081 11.818708-118.052954 35.454077-173.340714 23.637417-55.285712 55.434175-102.904571 95.39642-142.867838 39.962244-39.96122 87.586222-71.762075 142.873982-95.399492 55.279569-23.629226 113.222263-35.447934 173.828083-35.449981 47.973123 0.020478 94.764682 7.513271 140.368535 22.473259 45.604876 14.959988 86.731278 36.270114 123.372038 63.936519 36.634617 27.665381 68.773353 59.805142 96.419281 96.419281 27.642856 36.620283 48.952981 77.741565 63.936519 123.372038 14.987633 45.632521 22.474283 92.757867 22.474283 141.369895 0 60.612987-11.813589 118.393908-35.451005 173.338666z m-52.947158-381.667589c-36.954069-63.619115-87.240149-113.905195-150.861312-150.867455-63.618091-36.956117-132.889052-55.432128-207.804693-55.432128-74.913594 0-144.182508 18.476011-207.801623 55.432128-63.619115 36.96226-113.907242 87.24834-150.864383 150.867455-36.957141 63.619115-55.434175 133.05697-55.434175 208.312541-0.022525 55.96762 10.963764 109.419553 32.960916 160.358871 21.994081 50.938295 51.471739 94.896764 88.425808 131.874382 36.957141 36.976595 80.914586 66.454253 131.874383 88.427857C402.210824 787.127202 455.987329 798.114515 512.588734 798.116563h-0.016382 0.03174-0.016382c55.964548 0.01843 109.407266-10.968883 160.344538-32.960916 50.939319-21.994081 94.898811-51.471739 131.872334-88.427857 36.975571-36.957141 66.458349-80.915609 88.425808-131.874382 21.979746-50.959797 32.963988-104.413778 32.963988-160.358871 0.002048-75.255571-18.476011-144.693426-55.435199-208.312541zM512.607164-63.061097h-0.033788 0.033788zM604.568448 542.118611c16.260323 0 29.453085 12.585598 29.453086 28.111795v28.114867c0 15.539508-13.192762 28.112819-29.453086 28.11282-16.286944 0-29.479706-12.573312-29.479706-28.11282v-28.114867c0-15.525173 13.192762-28.111795 29.479706-28.111795zM415.068776 542.118611c16.259299 0 29.453085 12.585598 29.453086 28.111795v28.114867c0 15.539508-13.192762 28.112819-29.453086 28.11282-16.288992 0-29.481754-12.573312-29.481754-28.11282v-28.114867c0-15.525173 13.192762-28.111795 29.481754-28.111795zM653.322796 581.914986v-17.279089c0-21.786232-21.971555-39.450302-49.049227-39.450302-27.121698 0-49.093254 17.662022-49.093253 39.450302v19.725151h-91.423745v-19.725151c0-21.786232-21.970531-39.450302-49.046155-39.450302-27.12477 0-49.097349 17.662022-49.097349 39.450302v16.933015c-25.711808-7.952517-44.403859-32.013822-44.403858-60.471691V204.802662c0-34.940087 28.185515-63.260755 62.944374-63.260755h251.788759c34.758859 0 62.945398 28.320668 62.945399 63.260755V521.097221c-0.001024 28.882781-19.254164 53.236917-45.564945 60.817765z m-23.307726-362.155407H390.081879c-9.938855 0-17.992737 8.354904-17.992737 18.664406s8.053882 18.662358 17.992737 18.662357h239.933191c9.937831 0 17.991713-8.352856 17.991713-18.662357s-8.053882-18.664406-17.991713-18.664406z m0 99.100837H390.081879c-9.938855 0-17.992737 8.352856-17.992737 18.662357s8.053882 18.664406 17.992737 18.664406h239.933191c9.937831 0 17.991713-8.354904 17.991713-18.664406 0-10.305406-8.053882-18.662358-17.991713-18.662357z m0 99.10186H390.081879c-9.938855 0-17.992737 8.350809-17.992737 18.661334 0 10.310525 8.053882 18.664406 17.992737 18.664406h239.933191c9.937831 0 17.991713-8.355928 17.991713-18.664406 0-10.310525-8.053882-18.661334-17.991713-18.661334z"  horiz-adv-x="1024" />

    
    <glyph glyph-name="dingdan1" unicode="&#58884;" d="M803.375 781.125h-52.875c-14.625 0-31.5-9-31.5-23.625s16.875-29.25 31.5-29.25h52.875c31.5 0 52.875-21.375 52.875-52.875v-608.625c0-31.5-21.375-52.875-52.875-52.875h-569.25c-31.5 0-66.375 21.375-66.375 52.875v608.625c0 31.5 21.375 52.875 52.875 52.875h66.375c14.625 0 20.25 14.625 20.25 29.25s-5.625 23.625-20.25 23.625h-66.375c-74.25 0-105.75-46.125-105.75-106.875v-601.875c0-65.25 39.375-111.375 111.375-111.375h571.5c72 0 111.375 38.25 111.375 111.375v601.875c0 60.75-37.125 106.875-105.75 106.875zM287 542.625c0-14.625 12.375-27 27-27h397.125c14.625 0 27 12.375 27 27s-12.375 27-27 27h-397.125c-14.625 0-27-12.375-27-27zM710 423.375h-396c-14.625 0-27-12.375-27-27s12.375-27 27-27h397.125c14.625 0 27 12.375 27 27-1.125 15.75-13.5 27-28.125 27zM710 264.75h-396c-14.625 0-27-12.375-27-27s12.375-27 27-27h397.125c14.625 0 27 12.375 27 27-1.125 15.75-13.5 27-28.125 27zM420.875 714.75h184.5c21.375 0 39.375 21.375 39.375 46.125s-18 46.125-40.5 46.125h-183.375c-22.5 0-40.5-21.375-40.5-46.125s18-46.125 40.5-46.125z"  horiz-adv-x="1024" />

    
    <glyph glyph-name="shenfenzheng" unicode="&#59012;" d="M403.59122339 393.19871427c-8.94848757-4.45128721-21.78123406-9.6417772-34.32472696-9.6417772-12.46084956 0-23.18770902 5.15069854-32.13619658 9.54229862-16.64201361-11.40254928-28.01242377-31.75741266-28.01242378-42.50952423 0-16.70017015 27.51273492-27.60991759 61.46479966-27.60991832 33.99415208 0 61.50765231 10.90974744 61.50765155 27.61068363 0.00076531 10.79190374-10.79113844 31.22481939-28.49910389 42.6082375zM481.55647073 343.53973539000003h208.20652826v-14.8888931H481.55647073zM370.4158577 394.23023183c21.03131776 0 38.11180321 16.0696289 38.11180244 35.9010812 0 19.83145229-17.08048468 35.9209769-38.11180245 35.92097691-21.0734051 0-38.13322878-16.08952462-38.13399484-35.92097691 0.00076531-19.83145229 17.05982367-35.90108118 38.13399484-35.9010812zM481.55647073 449.84492162h208.20652826v-14.84986771H481.55647073zM481.55647073 395.58926305h208.20652826v-14.86899812H481.55647073zM512.38261046 765.12262013c-210.27721421 0-380.74001041-170.46279621-380.7400104-380.74000967S302.10539626 3.6426000599999497 512.38261046 3.6426000599999497s380.74001041 170.46279621 380.74000967 380.7400104S722.65905936 765.12262013 512.38261046 765.12262013z m247.48069993-485.15433598c0-36.94484141-31.82016028-66.9192911-71.06142826-66.91929036H335.9625735c-39.26192901 0-71.06142902 29.97368363-71.06142904 66.91929036v208.8286519c0 36.96473788 31.79873471 66.91852578 71.06142904 66.91852577H688.80188213c39.24126798 0 71.06142902-29.95378792 71.06142828-66.91776048v-208.82941719z"  horiz-adv-x="1024" />

    
    <glyph glyph-name="chevron-double-down" unicode="&#59505;" d="M707.84 657.493333L768 597.333333l-256-256-256 256 60.16 60.16L512 462.08l195.84 195.413333m0-256L768 341.333333l-256-256-256 256 60.16 60.16L512 206.08l195.84 195.413333z"  horiz-adv-x="1024" />

    
    <glyph glyph-name="chevron-double-left" unicode="&#59506;" d="M785.493333 579.84L725.333333 640l-256-256 256-256 60.16 60.16L590.08 384l195.413333 195.84m-256 0L469.333333 640l-256-256 256-256 60.16 60.16L334.08 384l195.413333 195.84z"  horiz-adv-x="1024" />

    
    <glyph glyph-name="chevron-double-right" unicode="&#59507;" d="M238.506667 579.84L298.666667 640l256-256-256-256-60.16 60.16L433.92 384 238.506667 579.84m256 0L554.666667 640l256-256-256-256-60.16 60.16L689.92 384l-195.413333 195.84z"  horiz-adv-x="1024" />

    
    <glyph glyph-name="chevron-double-up" unicode="&#59508;" d="M316.16 110.506667L256 170.666667l256 256 256-256-60.16-60.16L512 305.92l-195.84-195.413333m0 256L256 426.666667l256 256 256-256-60.16-60.16L512 561.92l-195.84-195.413333z"  horiz-adv-x="1024" />

    
    <glyph glyph-name="menu-down" unicode="&#60181;" d="M298.666667 469.333333l213.333333-213.333333 213.333333 213.333333H298.666667z"  horiz-adv-x="1024" />

    
    <glyph glyph-name="menu-left" unicode="&#60183;" d="M597.333333 597.333333l-213.333333-213.333333 213.333333-213.333333V597.333333z"  horiz-adv-x="1024" />

    
    <glyph glyph-name="menu-right" unicode="&#60184;" d="M426.666667 170.666667l213.333333 213.333333-213.333333 213.333333v-426.666666z"  horiz-adv-x="1024" />

    
    <glyph glyph-name="menu-up" unicode="&#60185;" d="M298.666667 256l213.333333 213.333333 213.333333-213.333333H298.666667z"  horiz-adv-x="1024" />

    
    <glyph glyph-name="phone" unicode="&#60354;" d="M282.453333 435.626667c61.44-120.746667 160.426667-219.733333 281.173334-281.173334l93.866666 93.866667c11.946667 11.946667 28.586667 15.36 43.52 10.666667 47.786667-15.786667 98.986667-24.32 152.32-24.32a42.666667 42.666667 0 0 0 42.666667-42.666667V42.666667a42.666667 42.666667 0 0 0-42.666667-42.666667A725.333333 725.333333 0 0 0 128 725.333333a42.666667 42.666667 0 0 0 42.666667 42.666667h149.333333a42.666667 42.666667 0 0 0 42.666667-42.666667c0-53.333333 8.533333-104.533333 24.32-152.32 4.693333-14.933333 1.28-31.573333-10.666667-43.52l-93.866667-93.866666z"  horiz-adv-x="1024" />

    
    <glyph glyph-name="qqq" unicode="&#58893;" d="M525.53500444 260.86399998c-18.83704889 2.96618667-19.26257778 54.30499555-19.26257778 54.30499555s55.33468445 54.30840889 67.39057778 127.33326223c32.44487111 0 52.48341333 77.63854222 20.03740444 104.95431111 1.35281778 28.75392 41.70069333 225.73397333-162.55658667 225.73397333-204.25841778 0-163.90940445-196.98005333-162.55658666-225.73397333-32.44600889-27.31576889-12.40974222-104.95431111 20.03057778-104.95431111 12.05703111-73.02485333 67.39626667-127.33326222 67.39626666-127.33326223s-0.43121778-51.33880889-19.26144-54.30499555c-60.65834667-9.57553778-287.16714667-108.62250667-287.16714666-217.2416h763.10755555c0.00796445 108.61795555-226.50083555 207.6672-287.15918222 217.2416v0zM525.53500444 260.86399998zM736.41984 273.54111997999996c-17.75729778 2.79438222-18.16462222 51.20910222-18.16462222 51.20910222s52.18076445 51.21365333 63.55171555 120.07424c30.58915555 0 49.48764445 73.21258667 18.89166222 98.96846223 1.28 27.11552 39.32273778 212.86229333-153.28938666 212.86229333-19.31719111 0-36.30421333-1.87392-51.25347556-5.26336 83.56522667-54.52117333 59.18492445-177.42961778 58.13703112-199.67317333 32.44487111-27.31463111 12.40746667-104.94862222-20.03171556-104.94862223-9.35139555-56.61923555-44.70328889-101.97674667-60.12586667-119.50990222 1.54624-1.64408889 2.43256889-2.51107555 2.43256889-2.51107555s-0.19456-22.20145778-5.82883556-37.40103112c2.73521778-11.03644445 7.41034667-20.96810667 15.3861689-22.2208 56.75918222-8.95658667 258.73635555-96.26510222 284.45582222-196.44188444h136.63118222c0 102.42958222-213.59729778 195.83203555-270.79338667 204.85688889v0zM736.41984 273.54111997999996z"  horiz-adv-x="1024" />

    
    <glyph glyph-name="mima1" unicode="&#58993;" d="M504.60276794 318.20356750999997v-60.73516846c0-7.39723206 6.22924805-13.2371521 13.62648011-13.2371521 7.78656006 0 13.62648011 5.83992005 13.6264801 13.2371521V318.20356750999997c12.84782409 5.06126404 22.19169616 17.51976013 21.80236817 31.92489623 0 19.07707214-15.96244812 34.65019226-35.03952027 34.65019226-19.46640015 0-35.42884827-15.18379212-35.42884827-34.65019226-0.389328-14.40513611 8.95454407-26.4743042 21.41304016-31.92489623zM512 770.21337891c-213.35174561 0-386.21337891-172.8616333-386.21337891-386.21337891s172.8616333-386.21337891 386.21337891-386.21337891 386.21337891 172.8616333 386.21337891 386.21337891S725.35174561 770.21337891 512 770.21337891zM403.76681518 510.53160095c0.389328 48.27667236 40.4901123 87.59880066 89.54544068 87.59880067h43.21540833c49.44465637 0 89.54544068-39.32212829 89.54544067-87.59880067v-42.43675232h-50.61264038V510.53160095c0 21.02371216-17.51976013 37.76481628-38.93280029 37.76481629H493.31225586c-21.41304016 0-38.93280029-16.74110413-38.93280029-37.76481629v-42.43675232h-50.61264039V510.53160095zM668.89918518 302.63044739c0-73.19366455-60.73516846-132.760849-135.87547303-132.76084901H491.36561585c-74.75097656 0-135.87547302 59.17785645-135.87547303 132.76084901V442.00987243h313.40904236V302.63044739z"  horiz-adv-x="1024" />

    
    <glyph glyph-name="duigou1" unicode="&#58948;" d="M512 800C282.618 800 96 613.382 96 384s186.618-416 416-416 416 186.618 416 416S741.382 800 512 800z m0-796c-209.532 0-380 170.464-380 380 0 209.532 170.468 380 380 380 209.534 0 380-170.468 380-380 0-209.536-170.466-380-380-380zM692.202 537.406L444.79 289.992 331.8 402.982c-10.934 10.936-28.664 10.936-39.598 0-10.934-10.934-10.934-28.664 0-39.6l132.79-132.79a28 28 0 0 1 39.596 0l267.21 267.212c10.936 10.934 10.936 28.664 0 39.598-10.932 10.938-28.664 10.938-39.596 0.004z"  horiz-adv-x="1024" />

    
    <glyph glyph-name="tixian" unicode="&#58916;" d="M685.41 372.257c16.877 0 30.608 11.966 30.608 26.674 0 14.71-13.731 26.676-30.609 26.676H550.686v13.018l133.525 128.939c5.541 5.35 8.319 12.274 7.82 19.497-0.503 7.303-4.47 14.175-10.884 18.851-5.495 4.01-12.476 6.218-19.66 6.218-8.67 0-16.96-3.204-22.743-8.79L520.13 488.803 409.023 603.013c-5.816 5.981-14.335 9.412-23.374 9.412-6.938 0-13.484-1.971-18.93-5.703-6.61-4.53-10.82-11.331-11.55-18.66-0.712-7.163 1.824-14.117 7.14-19.581l127.157-130.712v-12.161H369.629c-16.878 0-30.61-11.967-30.61-26.676 0-14.709 13.732-26.674 30.61-26.674h119.838v-21.463H369.629c-16.878 0-30.61-11.966-30.61-26.675s13.732-26.675 30.61-26.675h119.838v-101.226c0-14.708 13.732-26.673 30.61-26.673 16.877 0 30.608 11.965 30.608 26.673V297.445h134.723c16.878 0 30.609 11.966 30.609 26.675s-13.731 26.675-30.609 26.675H550.686v21.463l134.723-0.001zM760.08 640.489H950.6c11.912 0 21.601 11.604 21.601 25.867 0 14.263-9.69 25.865-21.6 25.865H760.078c-11.912 0-21.602-11.603-21.602-25.865 0-14.263 9.69-25.867 21.602-25.867zM972.904 513.388a26.957 26.957 0 0 1-26.157 20.394c-2.222 0-4.448-0.277-6.617-0.824-14.43-3.64-23.209-18.341-19.569-32.774 8.154-32.325 12.288-65.791 12.288-99.47 0-223.5-181.83-405.33-405.33-405.33s-405.33 181.83-405.33 405.33c0 223.5 181.831 405.33 405.331 405.33 59.51 0 116.831-12.593 170.37-37.428a26.773 26.773 0 0 1 11.348-2.513c10.475 0 20.09 6.137 24.498 15.636 3.033 6.54 3.34 13.87 0.86 20.64-2.48 6.772-7.447 12.17-13.988 15.204-60.712 28.163-125.676 42.444-193.089 42.444-122.686 0-238.03-47.776-324.784-134.528C115.985 638.745 68.208 523.4 68.208 400.714c0-122.69 47.777-238.033 134.528-324.782C289.49-10.821 404.833-58.6 527.52-58.6c122.689 0 238.032 47.777 324.784 134.53 86.752 86.75 134.53 202.092 134.53 324.783 0 38.126-4.687 76.035-13.93 112.674z"  horiz-adv-x="1024" />

    
    <glyph glyph-name="wentifankui" unicode="&#59328;" d="M544 314.304v-15.488a32 32 0 1 0-64 0V336c0 14.848 10.304 26.752 24 30.4 72.032 30.08 72.064 74.688 72 76.608l-0.032 49.184c0 28.544-28.704 51.84-64 51.84-35.264 0-63.968-23.296-63.968-51.84v-15.584a32 32 0 0 0-64 0v15.584c0 63.84 57.408 115.84 127.968 115.84 70.592 0 128-52 128-115.84v-47.584c0.16-1.28 4.672-80.768-95.968-130.304M512 160a32 32 0 1 0 0 64 32 32 0 0 0 0-64m0 608C300.256 768 128 595.712 128 384c0-211.744 172.256-384 384-384s384 172.256 384 384c0 211.712-172.256 384-384 384"  horiz-adv-x="1024" />

    
    <glyph glyph-name="add" unicode="&#59103;" d="M512 64a32 32 0 0 1 32 32v256h256a32 32 0 0 1 0 64h-256V672a32 32 0 0 1-64 0v-256H224a32 32 0 0 1 0-64h256v-256a32 32 0 0 1 32-32"  horiz-adv-x="1024" />

    
    <glyph glyph-name="anquanzhongxin" unicode="&#59541;" d="M525.25714286 49.371428570000035c180.95238125 72.38095268 331.44761875 292.43809553 333.39047589 487.42857143l0.76190535 76.1904759c0 1.25714286-1.86666696 3.33333304-3.14285714 3.44761963l-5.94285714 0.57142857c-89.35238125 8.72380982-221.12380982 52.24761875-298.17142857 98.47619019l-27.00952411 16.19047589c-4.83809553 2.91428571-16.32380982 2.32380982-20.76190446-1.00952322-73.02857143-54.78095268-202.30476161-104.09523839-293.18095268-111.8095241l-34.05714286-2.91428572c-1.48571429-0.13333304-3.44761875-2.24761875-3.46666696-3.69523839l-0.76190447-76.19047589c-1.92380982-194.81904732 145.12380982-414.4 325.82857143-486.66666696l13.25714286-5.31428572 13.25714286 5.29523839zM135.58095268 612.62857143c0.2095241 21.0095241 17.2 39.46666696 38.32380893 41.27619018l34.05714286 2.89523839C291.71428571 663.92380982 414.2095241 710.64761875 481.52380982 761.1428571399999c16.83809553 12.62857143 45.10476161 14.09523839 63.23809465 3.21904733l26.99047678-16.20952322c72.1904759-43.31428571 198.51428571-85.04761875 282.26666607-93.21904821l5.94285715-0.57142857c20.95238125-2.03809553 37.73333304-20.74285714 37.52380982-41.73333304l-0.76190447-76.1904759c-2.09523839-210.43809553-162.01904732-444.30476161-357.33333392-522.43809553L512 3.0476187499999696l-27.3904759 10.95238125C289.33333304 92.09523838999996 132.74285714 325.86666696 134.83809553 536.41904732l0.76190447 76.20952411zM373.08571429 397.46666696a19.04761875 19.04761875 0 0 1-26.93333304-26.93333392l133.33333304-133.33333304a19.04761875 19.04761875 0 0 1 28.43809553 1.71428571l209.52380893 266.66666697a19.04761875 19.04761875 0 1 1-29.94285714 23.52380893L491.23809553 279.31428571000004l-118.15238124 118.15238125z"  horiz-adv-x="1024" />

    
    <glyph glyph-name="xintianjiatupian" unicode="&#58907;" d="M0 120.4h20.8v-58H0z m24.4-194.6l-19.2-7.6c8.4-21.2 26.6-37.4 48.4-43.4l5.6 19.8c-15.8 4.4-28.8 16.2-34.8 31.2zM0 21h20.8v-58H0z m0 298.2h20.8v-58H0z m0-99.4h20.8v-58H0zM208.4 896h58v-20.8h-58zM109 896h58v-20.8h-58zM11 861.4l17.6-11C37.2 864.2 52.2 873.6 68.4 875L66.4 895.6C44 893.6 23.2 880.8 11 861.4z m86.8-968.6h58v-20.8h-58z m99.4 0h58v-20.8h-58zM307.8 896h58v-20.8h-58zM0 418.6h20.8v-58H0zM407.2 896h58v-20.8h-58zM606 896h58v-20.8h-58z m354.2-21.6L964 894.8C959.6 895.6 955.4 896 951 896h-47v-20.8h47c3.2 0 6.4-0.4 9.2-0.8zM506.6 896h58v-20.8h-58zM0 617.4h20.8v-58H0zM0 518h20.8v-58H0z m0 198.8h20.8v-58H0z m0 99.4h20.8v-58H0z m951-923.4h-58v-20.8h58c11 0 21.4 2.2 31.2 7l-9 18.6c-7-3-14.4-4.8-22.2-4.8z m52.2 478.8h20.8v-58h-20.8z m0-298.2h20.8v-58h-20.8z m0 99.4h20.8v-58h-20.8z m0 298.2h20.8v-58h-20.8z m0-198.8h20.8v-58h-20.8z m2.2 599.4L990 857.8c8.6-9.6 13.2-22 13.2-34.8v-12.4h20.8V823c0 18-6.6 35-18.6 48.6z m-2.2-102.4h20.8v-58h-20.8z m0-99.4h20.8v-58h-20.8z m0-99.4h20.8v-58h-20.8z m-706.6-677.6h58v-20.8h-58z m198.8 0h58v-20.8h-58z m198.8 0h58v-20.8h-58z m309 52.2c0-8.2-1.8-16.2-5.6-23.4l18.4-9.4c5.2 10.2 7.8 21.4 7.8 32.8v29H1003l0.2-29zM396-107.2h58v-20.8h-58z m198.8 0h58v-20.8h-58zM804.8 896h58v-20.8h-58z m-99.4 0h58v-20.8h-58z m88.2-1003.2h58v-20.8h-58z m-263 298.6v174h174v37.2h-174v174h-37.2v-174h-174v-37.2h174v-174z"  horiz-adv-x="1024" />

    
    <glyph glyph-name="fankui" unicode="&#58969;" d="M511.538 850.169c-257.016 0-465.394-208.357-465.394-465.374 0-257.01 208.378-465.374 465.394-465.374 257.013 0 465.394 208.363 465.394 465.374 0 257.017-208.381 465.374-465.394 465.374z m0-889.071c-234.011 0-423.703 189.707-423.703 423.698 0 233.99 189.692 423.703 423.703 423.703 234.008 0 423.703-189.713 423.703-423.703 0-233.991-189.695-423.698-423.703-423.698zM659.498 493.469c0-25.556-7.311-48.388-21.909-68.46-7.309-10.976-24.638-29.244-52.015-54.753-16.439-16.426-26.493-26.479-30.119-30.126-12.799-12.813-20.107-23.754-21.91-32.844-1.841-5.491-2.745-14.663-2.745-27.395v-24.641h-60.228v43.82c0 21.875 14.584 48.354 43.802 79.395 21.91 21.916 43.803 43.82 65.712 65.729 12.758 16.425 19.168 32.85 19.168 49.275 0 43.82-32.845 65.688-98.58 65.688-21.889 0-49.266-4.528-82.131-13.659v60.245c29.183 9.09 60.242 13.659 93.088 13.659 41.979 0 76.667-10.054 104.064-30.084 29.164-21.951 43.803-53.873 43.803-95.849zM536.284 145.743h-71.199v71.179h71.199v-71.179z"  horiz-adv-x="1024" />

    
    <glyph glyph-name="zuanshi" unicode="&#59167;" d="M957.960423 548.379814c-0.690732 1.571798-126.062114 212.274638-126.062114 212.274638l-96.90812-212.274638h222.970234m-612.343359 0H676.173618L510.900457 782.328078 345.617064 548.379814m131.331117 244.354264H243.571946c-9.105379 0-18.919908-3.289929-27.27111-8.633634l99.899244-218.881103L476.948181 792.734078m329.795215-5.934152c-7.233752 3.734044-15.138792 5.934153-22.590508 5.934152H544.842501l160.75731-227.523946 101.143585 221.589794M336.220043 514.637316S511.245312-24.697239 511.654634-24.733055l173.934425 539.370371H336.220043M192.482361 755.020128L69.382719 548.379814h217.418798l-94.319156 206.640314M65.347822 514.637316l393.171638-488.299205-157.750837 488.299205H65.347822m893.302309 0H721.030245L559.344796 13.252071S957.087543 510.384455 958.650131 514.637316"  horiz-adv-x="1024" />

    
    <glyph glyph-name="guoshi" unicode="&#58949;" d="M738.799 471.713c-31.692 15.844-116.195 15.844-147.879 18.486-21.127 26.411-76.581 95.065-105.629 108.27-118.836 58.096-219.18-10.563-277.275-129.396-10.563-15.844-13.204-31.688-18.485-50.173-47.533-150.521 21.127-324.804 171.646-396.107 147.879-73.936 324.808-23.767 419.874 105.629 10.567 13.204 21.127 31.688 31.688 47.533 52.814 116.195 44.896 242.947-73.94 295.76zM503.775 487.558c-5.281-10.563-15.841-13.204-26.407-10.563-52.814 0-100.347-23.767-134.677-66.018-7.923-10.563-21.127-13.204-31.688-10.563-10.563 7.923-15.844 21.127-10.563 31.688 0 2.641 0 2.641 2.641 5.281 42.251 55.455 110.909 89.784 179.568 87.143 5.281 0 10.563 0 10.563-2.641 10.563-2.641 15.844-15.844 10.563-34.329zM825.942 643.36c10.563-7.923 15.844-21.127 10.563-31.688-5.278-10.563-21.127-15.844-31.688-10.563-52.814 13.204-110.909-10.563-137.317-63.377-5.278-7.923-7.923-13.204-10.563-23.767l-42.251 21.127c2.645 7.923 5.281 13.204 10.567 23.767 36.962 76.581 121.464 110.909 200.69 84.503zM453.598 748.988c18.489 34.329 79.225 42.25 139.962 10.563 58.092-29.048 92.425-81.863 76.581-118.832-18.489-34.333-79.225-42.251-139.962-10.567-60.737 31.692-95.062 84.502-76.581 118.836z"  horiz-adv-x="1024" />

    
    <glyph glyph-name="jiaoyichenggong" unicode="&#59000;" d="M567.60033333 393.47533333l-22.158-23.593c-13.868-14.765-13.14-37.975 1.625-51.841l58.807-55.232c14.765-13.868 37.975-13.14 51.842 1.625L805.33033333 421.60333333c13.867 14.763 13.138 37.975-1.625 51.84l-58.807 55.233c-14.765 13.866-37.975 13.138-51.841-1.627l-22.16-23.591L537.99033333 628.28333333l22.159 23.593c13.868 14.765 13.14 37.975-1.626 51.842l-58.807 55.232c-14.764 13.867-37.975 13.139-51.84-1.626L300.25933333 600.15733333c-13.867-14.765-13.139-37.975 1.626-51.84l58.807-55.234c14.765-13.866 37.975-13.138 51.841 1.626l22.16 23.593 7.937-7.456-283.294-301.358s-48.712-70.21-6.07-109.979c63.919-58.9 127.205-1.798 127.205-1.798L559.77333333 400.82733333l7.826-7.352zM926.93266667 61.91933332999997h-79.52V121.20333332999996c0 9.215-16.42 16.684-36.674 16.684h-18.335v35.099c0 20.256-16.42 36.676-36.676 36.676H445.57866667c-20.255 0-36.675-16.42-36.675-36.676v-35.099h-13.62c-20.256 0-36.676-7.469-36.676-16.684v-59.283h-91.729c-17.047 0-30.864-13.82-30.864-30.866s13.819-30.864 30.864-30.864h660.053c17.047 0 30.866 13.819 30.866 30.864s-13.818 30.866-30.865 30.866z"  horiz-adv-x="1024" />

    
    <glyph glyph-name="quanjuyoujiantou32" unicode="&#59029;" d="M537.402426 253.60088199999996c-9.031974-9.031974-10.16097-24.837927-1.128997-33.869901 9.031974-9.031974 24.837927-10.16097 33.869901-1.128996l176.123484 168.220507c10.16097 9.031974 10.16097 24.837927 0 34.998897L570.14333 588.9129c-9.031974 9.031974-24.837927 9.031974-33.869901-1.128997-9.031974-9.031974-9.031974-24.837927 1.128997-33.869901l158.059537-151.285557-158.059537-149.027563z"  horiz-adv-x="1024" />

    
    <glyph glyph-name="tuichu11" unicode="&#58972;" d="M493.547977 456.936606c8.414429 0 15.487269 2.969011 21.320689 8.930144 5.781119 5.936807 8.672287 13.113032 8.672286 21.47516V713.765217c0 8.363344-2.891168 15.590655-8.672286 21.709907-5.83342 6.115604-12.90626 9.161243-21.320689 9.161243-8.156571 0-15.126025-3.045639-20.907143-9.161243-5.781119-6.119253-8.672287-13.346564-8.672287-21.709907v-226.422091c0-8.362128 2.891168-15.538354 8.672287-21.47516 5.782335-5.961133 12.750572-8.93136 20.907143-8.93136z m333.851408 38.693237c-6.660511 27.643065-16.416529 53.867914-29.218186 78.619812-12.750572 24.755547-28.135671 47.803395-46.04826 69.152059-17.913806 21.320689-38.407404 40.421613-61.432143 57.277229-48.474798-1.730808-55.083007-30.587751-50.489006-53.76696 78.779148-50.360077 131.228846-140.185749 131.228845-242.631847 0-157.658034-124.207091-285.478781-277.37451-285.47878S216.692831 246.622102 216.692831 404.280136c0 98.370245 48.371412 185.122302 121.98611 236.437183 3.252412 23.668166-4.232757 54.308218-49.55853 54.43593a377.782074 377.782074 0 0 1-58.334202-56.913553c-17.396874-21.062831-32.007184-43.69835-43.777411-67.936966s-20.856059-49.789628-27.257495-76.661553C153.349866 466.769252 150.148539 439.38526 150.148539 411.456362c0-48.990513 8.93136-94.987688 26.896252-137.938009 17.913806-42.900451 42.486906-80.326294 73.666999-112.179006 31.232395-31.852713 67.730193-57.147084 109.442311-75.83568 41.712117-18.738464 86.108629-28.083369 133.240621-28.083369 47.596622 0 92.252208 9.344906 133.963109 28.083369 41.712117 18.687379 78.055444 43.982967 109.029982 75.83568s55.547637 69.278555 73.718084 112.179006c18.171664 42.951536 27.257495 88.947496 27.257496 137.938009-0.001216 28.444613-3.304713 56.503657-9.964008 84.173481z"  horiz-adv-x="1024" />

    
    <glyph glyph-name="zhanghu" unicode="&#58975;" d="M512-66C263.47500019-66 62 135.47500018999995 62 384S263.47500019 834 512 834s450-201.4750002 450-450-201.4750002-450-450-450z m0 50.0000001c220.92500039 0 399.9999999 179.07500039 399.9999999 399.9999999S732.92500039 783.9999999 512 783.9999999 112.0000001 604.9250003899999 112.0000001 384s179.07500039-399.9999999 399.9999999-399.9999999zM712.00000039 184.82499989999997c0-14.24999971-11.25-25.8249999-25.10000068-25.8249999s-25.07500019 11.54999971-25.07499932 25.8249999l0.04999922 0.47500049h-0.1749999c0 0.60000029 0.1000002 1.1750001 0.10000019 1.7499999a158.1249999 158.1249999 0 0 1-42.4249998 108.34999981l0.15000029 0.1749999c-4.4499999 4.5-7.2500001 10.7499999-7.2500001 17.67499981 0 13.70000039 10.77500039 24.77499961 24.075 24.77500048 6.75 0 12.825-2.85000029 17.19999932-7.45000048l0.0500001 0.05000009A208.1750001 208.1750001 0 0 0 712.00000039 185.30000039000004h-0.0500001l0.0500001-0.5000001z m-199.6250001 157.87500029v-0.07500058H512c-82.7499999 0-149.7999999-69.62500019-149.7999999-155.54999971 0-0.42500039 0.0500001-0.8499999 0.0749997-1.2499998 0-0.34999981 0.1000002-0.675 0.1000002-1.0000002 0-14.24999971-11.25-25.8249999-25.09999981-25.8249999s-25.09999981 11.54999971-25.0999998 25.8249999l0.04999922 0.47500049H311.99999961c0 83.54999971 48.4750002 155.3000001 118.0000002 187.5499998a134.39999971 134.39999971 0 0 0-47.39999942 102.99999991C382.60000039 549.35000039 440.5000001 609 512 609s129.39999961-59.625 129.39999961-133.17500039c0-73.4000001-57.75000029-132.9249999-129.02499932-133.12499942zM512 560.74999981c-45.5000001 0-82.35-37.95000029-82.35-84.74999942S466.4999999 391.2500001 512 391.2500001c45.5000001 0 82.35 37.95000029 82.35 84.75000029S557.5000001 560.74999981 512 560.74999981z"  horiz-adv-x="1024" />

    
    <glyph glyph-name="yinhangqia" unicode="&#58942;" d="M711.0144 220.7232s4.36224 17.49504 5.10976 19.76832a0.59392 0.59392 0 0 0 0.06656 0.24064c-5.9648-0.05632-7.71584 0-8.28416 0.13312-0.2304-1.01376-4.25472-19.48672-4.2752-19.48672-0.86016-3.74272-1.48992-6.41024-3.61984-8.12032a6.59456 6.59456 0 0 0-4.29568-1.50016c-2.63168 0-4.18816 1.31584-4.44928 3.80416l-0.04608 0.83968s0.7936 5.01248 0.80384 5.03296c0 0 4.224 16.83456 4.98688 19.06176 0.01536 0.13312 0.04608 0.1792 0.06656 0.24064-8.2432-0.07168-9.7024 0-9.79456 0.128a34.0992 34.0992 0 0 1-0.26624-1.21856l-4.30592-18.95424-0.384-1.62816-0.70656-5.25824c0-1.54624 0.29696-2.82624 0.9216-3.90144 1.98144-3.42528 7.5776-3.93216 10.74688-3.93216 4.096 0 7.92064 0.86016 10.50624 2.43712 4.50048 2.6368 5.69344 6.784 6.7328 10.4448l0.4864 1.8688z m36.57728 7.3728c-1.6384 0.96768-4.51072 0.6656-6.46144-0.67072-1.95072-1.32096-2.18112-3.16928-0.54272-4.14208 1.62816-0.95232 4.52608-0.6656 6.46656 0.68096 1.92512 1.32608 2.17088 3.17952 0.5376 4.13184z m-0.03584-5.62176c-1.80736-0.34304-2.95936-0.5632-4.11136-0.73216-1.13152-0.17408-2.24768-0.32256-3.9936-0.57856l-0.14336-0.12288-0.128-0.10752c-0.1792-1.29536-0.31232-2.41664-0.54272-3.7376-0.22016-1.36192-0.53248-2.9184-1.04448-5.13024-0.39936-1.69984-0.6144-2.29888-0.82944-2.89792-0.21504-0.59392-0.46592-1.18784-0.90112-2.85696l0.09216-0.14336 0.1024-0.13824c1.62816 0.07168 2.69824 0.128 3.79904 0.13824 1.09568 0.03072 2.23744 0 3.9936-0.01024l0.16896 0.11776 0.15872 0.13824c0.256 1.5104 0.28672 1.92 0.45056 2.6624 0.14336 0.78336 0.40448 1.8688 1.05984 4.79232 0.31232 1.37728 0.65536 2.75456 0.97792 4.13184 0.3328 1.40288 0.67072 2.78016 1.00352 4.16256l-0.05632 0.14848-0.05632 0.16384z m227.0208 424.2688c0.00512 26.0608-21.28384 47.19104-47.5392 47.19104H96.95744c-26.26048 0-47.5392-21.13024-47.5392-47.19104v-125.17888h925.1584V646.74304z m-243.55328-420.096l-0.17408-0.00512 8.52992 36.40832c1.72544 7.2704 8.46336 13.33248 15.7184 14.46912h-3.16928c-7.25504-1.13664-13.99296-7.19872-15.71328-14.46912l-8.67328-37.00224c-0.4096-0.13824-0.8192-0.29696-1.22368-0.49152-0.63488-0.32768-1.23392-0.70144-1.84832-1.05984l0.54784 2.0224-0.29696 0.35328c-3.64544-0.75264-4.47488-0.86016-7.83872-1.31584l-0.26624-0.19456c-0.41472-3.2256-0.75264-5.64736-2.20672-12.01152-0.55296-2.31936-1.13152-4.70016-1.72032-7.04l0.15872-0.2816c3.47648 0.16896 4.51072 0.16896 7.51616 0.128l0.256 0.26112c0.37376 1.95072 0.43008 2.39616 1.26976 6.33856 0.40448 1.87904 1.22368 5.97504 1.63328 7.44448 0.75264 0.3328 1.47968 0.6656 2.19648 0.6656 0.2304 0 0.43008-0.0256 0.59392-0.08192l-17.11104-73.04192c-1.90464-8.05888 3.1232-14.62784 11.25376-14.62784h3.15392c-8.12032 0-13.15328 6.56896-11.24352 14.62784l13.6704 58.35264c2.36032 0.1024 3.47648 0.09216 5.94944 0.06144l0.33792 0.26112c0.53248 3.04128 0.6912 3.85024 1.61792 8.2688l0.47104 2.03264c0.91136 3.97824 1.36704 5.99552 0.68096 7.63904-0.7168 1.84832-2.47808 2.28864-4.0704 2.28864z m26.52672-20.92032c3.33824 0 6.7584 0.90624 9.3184 3.61984 1.98656 2.19648 2.88768 5.4528 3.20512 6.79936 1.01376 4.46464 0.23552 6.53824-0.768 7.82336-1.536 1.93024-4.21376 2.54976-6.99392 2.54976-1.67936 0-5.6576-0.16384-8.78592-3.04128-2.2272-2.03776-3.26656-4.84352-3.90144-7.52128-0.61952-2.72384-1.3568-7.64416 3.18976-9.47712 1.42848-0.59904 3.43552-0.75264 4.736-0.75264z m-0.24576 10.01984c0.76288 3.38432 1.67936 6.21568 3.98848 6.21568 1.82272 0 1.93536-2.0992 1.14176-5.49888-0.14848-0.72704-0.8192-3.54304-1.71008-4.72576-0.6144-0.88064-1.36192-1.41312-2.18624-1.41312-0.24064 0-1.66912 0-1.69984 2.13504a12.81024 12.81024 0 0 0 0.46592 3.28704z m-3.3024-33.17248h4.18816l-1.11104-3.7376h-4.224l-1.39264-4.60288h4.1984l-2.45248-8.05888c-0.32256-1.0496 0.1536-1.46432 0.4608-1.96096a2.04288 2.04288 0 0 1 1.3568-0.98304c0.7424-0.16896 1.2544-0.26624 1.94048-0.26624h8.52992l1.51552 5.01248-3.78368-0.52736c-0.72704 0-2.73408 0.10752-2.51392 0.77824l1.82784 6.07744h7.56224l1.38752 4.53632h-7.56736l1.152 3.73248h7.3984l1.36192 4.38784h-18.49856l-1.33632-4.38784z m108.43648 42.81344l-0.24064-0.23552c-0.02048-0.04096-0.02048-0.09728-0.03584-0.14848l-0.02048 0.0512c-2.47296-5.67296-2.39616-4.44416-4.4032-8.89344-0.02048 0.2048-0.02048 0.33792-0.03072 0.54272l-0.49664 9.6512-0.31744 0.3072c-3.76832-0.72192-3.8656-0.83968-7.35232-1.28l-0.2816-0.23552-0.0512-0.37888 0.0256-0.06144c0.42496-2.21696 0.33792-1.7152 0.768-5.21728 0.2048-1.70496 0.46592-3.43552 0.67072-5.13024 0.33792-2.82624 0.54272-4.22912 0.96256-8.54528-2.35008-3.85536-2.92352-5.3248-5.16096-8.71424l-1.5872-2.54976c-0.18944-0.256-0.35328-0.4352-0.58368-0.50176a2.5856 2.5856 0 0 0-1.05472-0.16384h-0.88064l-1.32608-4.34176 4.51584-0.06656c2.65216 0.00512 4.30592 1.23904 5.21216 2.88256l19.50208 33.98656-0.27136 0.3072c-3.59936-0.70656-4.24448-0.82432-7.56224-1.26464z m-35.13856-41.71776h7.90016l-1.14688-3.6352h-7.98208l-1.19296-3.98848h6.97344l-5.2736-7.40864a2.176 2.176 0 0 0-1.08544-0.90112 3.27168 3.27168 0 0 0-1.42336-0.39936h-1.93536l-1.3312-4.36736h5.07904c2.6368 0 4.20352 1.19808 5.36064 2.75968l3.61472 4.9408 0.78848-5.01248a2.38592 2.38592 0 0 1 1.29024-1.71008c0.512-0.24576 1.03936-0.68608 1.792-0.7424 0.78336-0.04096 1.34656-0.06656 1.7408-0.06656h2.48832l1.4848 4.88448h-0.96768c-0.58368 0-1.54624 0.09216-1.71008 0.27648-0.14848 0.21504-0.16896 0.5376-0.256 1.03424l-0.78848 5.02272h-3.23584l1.42848 1.69472h7.98208l1.21344 3.9936h-7.38304l1.15712 3.6352h7.35744l1.37728 4.50048h-21.94432l-1.37216-4.51072zM49.41824 435.31776v-355.0208c0-26.06592 21.28896-47.19616 47.54432-47.19616h830.08c26.25536 0 47.54432 21.12512 47.54432 47.19616v355.0208H49.41824z m115.62496-129.05472c0-8.05376-6.60992-14.58176-14.76096-14.58176h-28.28288c-8.15104 0-14.75584 6.528-14.75584 14.58176v42.67008c0 8.04864 6.60992 14.57664 14.75584 14.57664h28.28288c8.15104 0 14.76096-6.528 14.76096-14.57664v-42.67008z m101.39136 0c0-8.05376-6.6048-14.58176-14.75584-14.58176h-28.28288c-8.14592 0-14.75584 6.528-14.75584 14.58176v42.67008c0 8.04864 6.60992 14.57664 14.75584 14.57664h28.28288c8.15104 0 14.75584-6.528 14.75584-14.57664v-42.67008z m100.78208 0c0-8.05376-6.6048-14.58176-14.75584-14.58176h-28.28288c-8.15104 0-14.75584 6.528-14.75584 14.58176v42.67008c0 8.04864 6.6048 14.57664 14.75584 14.57664h28.28288c8.15104 0 14.75584-6.528 14.75584-14.57664v-42.67008z m520.69888-43.40224l-27.02336-115.30752c-1.69984-7.22944-8.40192-13.2608-15.63648-14.42304-0.17408-0.00512-0.34304-0.01536-0.51712-0.01536h-58.01984c-8.12544 0-13.15328 6.56896-11.24864 14.62784l3.56352 15.21664h1.7408l1.5104 5.12-2.0992-0.19968 2.62656 11.20768h7.21408c1.4592 0.00512 2.52416 0.03072 3.21536 0.08192 0.7424 0.0768 1.54624 0.3584 2.43712 0.8192a4.47488 4.47488 0 0 1 1.76128 1.6128c0.44032 0.59904 1.13152 1.89952 1.73056 3.92704l3.56352 11.78624-10.45504-0.0512s-3.22048-0.48128-4.64896-1.00864a7.38304 7.38304 0 0 1-0.90112-0.45056l2.42688 10.35776 0.86016-0.01024 0.3584 0.256c0.512 3.03616 0.65536 3.85024 1.60768 8.2688l0.4608 2.03776c0.83456 3.58912 1.28512 5.5808 0.86016 7.14752l9.17504 39.18336c1.72032 7.26528 8.45824 13.33248 15.71328 14.46912h-2.65728c-7.25504-1.13664-13.99296-7.20384-15.71328-14.46912l-8.61184-36.77696a5.98016 5.98016 0 0 1-2.17088 0.36864c-1.04448 0-2.97472-0.256-4.69504-1.09056-0.6144-0.32768-1.2288-0.70144-1.82784-1.05984l0.53248 2.0224-0.29184 0.35328c-3.65568-0.75264-4.47488-0.86016-7.84384-1.31584l-0.26624-0.19456c-0.41472-3.2256-0.75776-5.64736-2.19136-12.01152-0.55808-2.31936-1.11616-4.70016-1.69984-7.03488l0.16384-0.28672c3.44064 0.16896 4.48 0.16896 7.49056 0.128l0.25088 0.26112c0.384 1.95584 0.42496 2.39616 1.2544 6.33856 0.4096 1.87904 1.2544 5.97504 1.664 7.44448 0.7424 0.3328 1.47968 0.67072 2.2016 0.67072 1.66912 0 1.46944-1.4592 1.41824-2.03776-0.0768-0.97792-0.6912-4.16768-1.32096-6.92224l-0.41472-1.75104c-0.3072-1.31584-0.63488-2.59072-0.9216-3.88096l0.11776-0.24064c1.71008 0.08192 2.81088 0.12288 3.84512 0.13824l-2.07872-8.87808h-5.7856l-9.04704-29.8496a18.304 18.304 0 0 1-0.58368-2.4832c-0.0256-0.55808 0.68096-1.0752 1.152-1.48992 0.53248-0.4096 1.33632-0.34304 2.10432-0.4096 0.80384-0.07168 1.96096-0.1024 3.5328-0.1024h0.58368l-3.5584-15.21152c-1.90976-8.05888 3.11808-14.63296 11.24864-14.63296h-57.1904c-0.5632-0.06144-1.1264-0.09728-1.6896-0.09728H667.136c-8.09472 0-13.1328 6.56896-11.24352 14.62784l27.03872 115.30752c1.88416 8.07424 9.98912 14.66368 18.11456 14.66368h54.78912c0.5632 0.06144 1.1264 0.09728 1.6896 0.09728h66.7392c0.80896 0 1.49504-0.06656 2.08384-0.19456h50.32448c8.09984 0.01024 13.1584-6.58432 11.24352-14.65344z m-110.81728-93.1072l2.84672 9.33376h0.21504l-2.6624-11.37664a1.12128 1.12128 0 0 0-0.60416 0.43008c-0.19456 0.24576-0.05632 0.68608 0.2048 1.6128z m4.01408 13.50656l0.08704 0.28672-0.07168-0.28672h-0.01536z m11.24352 2.11456l-0.68096-2.08896c-0.08192-0.06144-0.31232 0.10752-1.39264-0.03072h-6.49216l0.49152 2.11968h8.07424z m-7.23456 3.57888l0.80896 3.456h8.64256l-0.76288-2.51904s-5.05344 0.05632-5.84704-0.11264c-1.09568-0.18432-2.048-0.49664-2.8416-0.82432z m37.56544-19.65568h-1.89952l7.07072 23.26016h2.35008l0.7424 2.37568 0.07168-2.65216c-0.08192-1.64352 1.20832-3.10784 4.63872-2.85184h3.968l1.36192 4.48512h-1.48992c-0.8448 0-1.23904 0.20992-1.21344 0.6656l-0.06656 2.71872h-7.33696v-0.02048c-2.40128-0.0512-9.46688-0.23552-10.88-0.59904-1.7408-0.44544-3.57376-1.76128-3.57376-1.76128l0.7168 2.41152h-6.86592l-1.42848-4.77184-7.168-23.61856h-1.39264l-1.37728-4.44928h13.69088l-0.4608-1.50528h6.72768l0.45056 1.50528h1.8944l1.46944 4.80768z m-8.56064-0.06144h-5.46816l1.59232 5.21728h5.46304l-1.5872-5.21728z m3.06176 10.09152s-1.7152-0.20992-2.82624-0.4608c-1.11616-0.3328-3.19488-1.39264-3.19488-1.39264l1.8688 6.17984h5.4784l-1.32608-4.3264z m-0.09728 8.4992c-1.11616-0.30208-3.14368-1.2032-3.14368-1.2032l1.8176 5.9392h5.4528l-1.31072-4.3264c-0.00512-0.00512-1.68448-0.11776-2.816-0.4096z m-25.14944-11.55584a1.29536 1.29536 0 0 0-0.41984-0.65024c-0.2304-0.14848-0.56832-0.19456-1.08032-0.19456h-1.51552l0.08704 2.56h-6.27712l-0.256-12.49792c-0.02048-0.88576 0.07168-1.41824 0.73728-1.82272 0.6656-0.53248 2.69824-0.59392 5.46816-0.59392h3.9424l1.39264 4.66432-3.42528-0.18944-1.13152-0.0512a1.1008 1.1008 0 0 0-0.46592 0.28672c-0.14848 0.14336-0.38912 0.04608-0.33792 0.96256l0.0256 3.19488 3.584 0.13312c1.94048 0 2.76992 0.63488 3.47136 1.22368 0.6656 0.57344 0.89088 1.24416 1.152 2.1248l0.59392 2.83648h-4.93568l-0.60928-1.98656z m-22.81984 21.0688h-7.55712l-1.89952-3.42528c-0.41984-0.76288-0.78848-1.23904-1.1264-1.4336-0.2816-0.19456-0.85504-0.26624-1.71008-0.26624h-1.00352l-1.33632-4.4032h3.31264c1.60256 0 2.83648 0.58368 3.42016 0.8704 0.62464 0.34304 0.80896 0.14336 1.27488 0.61952l1.13664 0.95744h10.35776l1.39264 4.59264h-7.59296l1.3312 2.48832z m53.56544 18.23232c-0.62976-2.69312-1.3568-7.61344 3.16928-9.37472 1.43872-0.60416 2.74944-0.77824 4.05504-0.73728 1.3824 0.08192 2.65728 0.768 3.84512 1.76128l-0.32256-1.21344 0.20992-0.26112c3.2768 0.13312 4.2752 0.13312 7.80288 0.10752l0.31744 0.24576c0.512 3.00544 1.01376 5.93408 2.35008 11.68384 0.64 2.74944 1.30048 5.49376 1.9712 8.22784l-0.12288 0.3072c-3.64544-0.68096-4.60288-0.80896-8.10496-1.31584l-0.26112-0.20992-0.10752-0.80896a4.992 4.992 0 0 1-2.56512 2.0992c-1.55136 0.59392-5.21216-0.18944-8.3456-3.04128-2.21184-2.02752-3.2768-4.80256-3.8912-7.47008z m7.6544-0.16384c0.77824 3.29216 1.67424 6.12352 3.99872 6.12352 1.45408 0 2.24256-1.32608 2.08896-3.6096a165.56544 165.56544 0 0 0-1.12128-4.75136c-0.256-0.70144-0.55808-1.36704-0.896-1.80224-0.59392-0.8448-2.01216-1.36192-2.83648-1.36192-0.22528 0-1.65376 0-1.70496 2.09408a15.12448 15.12448 0 0 0 0.47104 3.30752z m-25.29792-2.15552s1.08544 4.5312 1.14688 4.70016c0 0 0.33792 0.46592 0.70144 0.6656h0.49664c4.75136 0 10.12736 0 14.33088 3.06688 2.84672 2.11456 4.80256 5.22752 5.6832 9.00096 0.22528 0.93696 0.39424 2.05824 0.39424 3.1488 0 1.45408-0.28672 2.87232-1.14176 4.00896-2.15552 2.98496-6.40512 3.0208-11.34592 3.05152l-2.42688-0.03072c-6.31808-0.07168-8.83712-0.03584-9.87648 0.08704-0.08704-0.4608-0.26624-1.27488-0.26624-1.27488l-2.24768-10.42432-5.66272-23.18848c5.49376 0.06144 7.77216 0.06144 8.69888-0.03072 0.22528 1.03936 1.50016 7.2192 1.51552 7.2192z m2.67776 11.25888s2.41152 10.39872 2.41152 10.36288l0.0512 0.5376 0.05632 0.4096 0.95232-0.1024s4.95616-0.4352 5.07904-0.4352c1.95584-0.7424 2.75456-2.69824 2.19648-5.23776-0.52224-2.304-2.0224-4.2496-3.95264-5.1968-1.61792-0.80384-3.56352-0.86016-5.58592-0.86016h-1.3056l0.09728 0.52224z"  horiz-adv-x="1024" />

    
    <glyph glyph-name="zuanshi1" unicode="&#58952;" d="M893.943695 675.7962H243.753183L0 434.61411l568.825686-562.61411 568.825686 562.61411z m45.506055-262.638195c-27.576669-0.887368-92.855105-6.825908-128.66837-42.206866-37.65626-37.360471-42.366137-107.189512-42.866704-131.44424v0c-0.455061 24.914565-5.119431 97.838018-43.731319 136.176869-35.767759 35.358205-102.934696 38.338851-129.464726 38.020309-6.825908-0.432308-11.239996-0.386801-11.239995-0.386801s4.254816 0.295789 11.239995 0.386801c25.346873 1.410688 87.803933 8.395867 123.162138 43.390024 47.076014 46.5982 50.05666 138.679702 50.05666 138.679702s-5.119431-96.313565 40.95545-141.978891c35.881524-35.449217 102.593401-40.204599 130.511365-40.636907 7.96356 0.318542 12.969226 0.159271 12.969226 0.159271s-5.005666-0.204777-12.969226-0.159271zM787.254749 896s-2.957894-55.31261 23.526631-81.501344 82.434218-23.2991 82.434218-23.2991-54.857549 1.865748-81.364826-24.322987S787.254749 686.421864 787.254749 686.421864s1.865748 56.450261-25.164848 83.185069c-25.870192 25.642662-80.750494 21.592623-80.750494 21.592623A126.029019 126.029019 0 0 1 758.563182 816.364404 136.33614 136.33614 0 0 1 787.254749 896z m0 0l223.116188-116.518254a85.392112 85.392112 0 0 1 16.040884-55.653905 87.712921 87.712921 0 0 1 56.177225-15.927119 88.350006 88.350006 0 0 1-55.494634-16.564204 85.687901 85.687901 0 0 1-16.723475-54.880302 89.646928 89.646928 0 0 1-17.224042 56.74605 83.389846 83.389846 0 0 1-55.107833 14.743962 85.869926 85.869926 0 0 1 52.650506 17.178536 93.287413 93.287413 0 0 1 19.681369 54.334229z m0 0"  horiz-adv-x="1137" />

    
    <glyph glyph-name="shuaxin" unicode="&#58995;" d="M854 560.7l-0.3-0.2c-5.6 9.3-15.9 15.6-27.6 15.6-17.8 0-32.2-14.4-32.2-32.1 0-5.3 1.3-10.3 3.6-14.7h-0.1c22-43.4 34.4-92.5 34.4-144.5C831.8 208.2 688.6 65 512 65S192.2 208.1 192.2 384.8c0 152.4 106.5 279.2 249.1 311.2l-33.6-43.7c-10.8-14-8.1-34.2 5.9-45 14-10.8 34.2-8.1 45 5.9l75.3 97.8c6.5 5.9 10.6 14.4 10.6 23.8 0 11.3-5.9 21.2-14.7 27L429.3 838.9c-13.8 10.6-33.8 8-44.4-5.7l-0.6-0.8c-10.6-13.8-8-33.7 5.8-44.3l38.4-29.5C257 720.1 128.9 566.9 128.9 383.8c0-212.1 172-384.1 384.1-384.1s384.1 172 384.1 384.1c0 63.8-15.5 124-43.1 176.9zM708.9 637.9a32.2 32.1 0 1 1 64.4 0 32.2 32.1 0 1 1-64.4 0Z"  horiz-adv-x="1024" />

    
    <glyph glyph-name="saoyisaoerweimasaomasaomiao1" unicode="&#58970;" d="M836.861 709.131c0 23.815-22.973 47.164-47.142 47.164H614.601V814.786h152.072c76.049-0.07 129.052-42.908 128.68-116.98v-163.773h-58.491V709.131z m-655.089 0.371v-175.469h-58.489V697.806c0 74.083 42.871 116.98 116.98 116.98h163.773v-58.492H228.564c-23.746 0.001-46.792-23.639-46.792-46.792z m0-561.726c0-22.542 22.939-46.571 47.925-46.571h174.339v-58.488H228.564c-74.094 0-105.28 42.886-105.28 116.98V323.469h58.489v-175.693z m655.089 0.56V323.469h58.491v-163.772c0.07-74.094-42.558-116.932-116.98-116.98H614.601v58.488h174.838c24.504 0 47.422 23.492 47.422 47.131z m163.772 280.391c0-19.396-15.724-35.119-35.119-35.119H53.119C33.723 393.608 18 409.332 18 428.727c0 19.396 15.724 35.119 35.119 35.119h912.395c19.395 0 35.119-15.723 35.119-35.119z"  horiz-adv-x="1024" />

    
    <glyph glyph-name="tubiao-houtai-" unicode="&#58940;" d="M497.74730694 97.65429082000003a24.31756548 24.31756548 0 0 1 37.09601028 0c2.40276743 2.83273702 59.51178961 70.36315592 117.58970113 154.8870766 79.87013885 116.24337277 120.36893507 204.68759966 120.36893507 262.87738074 0 68.51584532-26.68142193 132.93044915-75.1288073 181.37880701-48.44835786 48.44738537-112.86296073 75.1288073-181.37783357 75.12880729s-132.92947665-26.68142193-181.37783451-75.12880729c-48.44835786-48.44835786-75.1288073-112.86296073-75.1288073-181.37783452 0-58.18978108 40.49879623-146.63400702 120.36893507-262.87737979 58.07791153-84.52489412 115.18790619-152.05434053 117.58970113-154.88805004z m18.5489781 625.63304882c114.61882975 0 207.8685915-93.24878925 207.8685915-207.86859148 0-46.76155651-39.63107619-130.22125535-111.5934828-235.00527534-37.14270307-54.08270178-74.65700926-101.95517387-96.2751087-128.72900986-21.61810038 26.77383598-59.13240562 74.64630808-96.27510868 128.72900986C348.05876879 385.19749281 308.42769355 468.65719165 308.42769355 515.41972065c0 114.61882975 93.24878925 207.867619 207.86859149 207.86761899zM516.29725753 416.95001999c62.14316142 0 112.70050652 50.55734604 112.70050652 112.70050652s-50.55734604 112.70050652-112.70050651 112.70050653-112.70050652-50.55734604-112.70050652-112.70050653 50.55734604-112.70050652 112.70050651-112.70050652z m1e-8 176.76199023c35.32360418 0 64.0614837-28.73788047 64.06148465-64.06148371s-28.73788047-64.0614837-64.06148466-64.06148465-64.0614837 28.73788047-64.0614837 64.06148465 28.73788047 64.0614837 64.0614837 64.06148371zM711.02844918 228.95436010000003c-13.25218781 2.17610991-25.76214474-6.79973507-27.94214555-20.05289631-2.17805584-13.25413374 6.79973507-25.76311723 20.05289632-27.94214556 49.71880924-8.17135576 90.90536079-19.44977229 119.10821145-32.61732881 27.38474278-12.78622661 33.54827968-23.24750776 33.54827967-25.90514345 0-4.52926612-15.0197305-25.44599158-88.49967494-45.01541619-66.73371244-17.77367212-155.87347647-27.56178908-251.00070357-27.56178813-95.12625556 0-184.26699208 9.78908946-250.99973203 27.56178813-73.47994444 19.5703971-88.50064743 40.48615006-88.50064743 45.01541619 0 2.56716757 5.88240381 12.70256686 32.01809568 25.18334054 27.0890176 12.93506217 66.81737125 24.13079238 114.89120853 32.37413327 13.23759666 2.27046989 22.1288094 14.8426842 19.85931295 28.08028088-2.27046989 13.23662323-14.83976578 22.13367375-28.08027993 19.85931294-85.45876341-14.65493767-187.3273591-44.85393447-187.32736005-105.49706763 0-39.03378899 41.92878339-69.99252624 124.61998653-92.01627638 70.70168298-18.83011119 164.28705433-29.20092325 263.51941575-29.20092325s192.81870525 10.36983958 263.51941575 29.19995077c82.69217562 22.02472262 124.61998558 52.98345987 124.61998558 92.01724886 0.00194593 61.76572243-105.17507764 92.01724886-193.40626471 106.51751414z"  horiz-adv-x="1024" />

    
    <glyph glyph-name="shouqi1" unicode="&#58978;" d="M601.8 718.2H139.5v-57.8h751.3v57.8zM428.5 429.3v-57.8h462.3v57.8h-289zM312.9 371.5V544.9L174.2 429.3l-34.7-28.9 34.7-28.9 138.7-115.6zM139.5 140.4v-57.8h751.3v57.8h-289z"  horiz-adv-x="1024" />

    
    <glyph glyph-name="fabu" unicode="&#58991;" d="M824.32 163.84c-4.096-87.552-76.288-157.184-164.864-157.184h-389.12c-88.064 0-160.256 69.632-164.864 157.184v440.32c4.096 87.552 76.288 157.184 164.864 157.184h327.68l-71.168-59.904h-256.512c-57.856 0-104.96-47.104-104.96-104.96v-424.448c0-57.856 47.104-104.96 104.96-104.96h389.12c57.856 0 104.96 47.104 104.96 104.96v296.96L824.32 527.872v-364.032z m-206.848 263.68l-43.52-46.08c-14.336-14.848-50.688-51.712-62.464-64-11.776-12.288-20.992-22.528-28.672-30.208s-12.288-12.288-13.312-13.824c-3.584-3.584-7.68-7.168-12.288-10.752s-9.728-6.656-14.848-9.216-12.288-5.632-22.016-9.728c-9.728-3.584-19.968-7.68-30.72-11.264s-20.992-6.656-30.208-9.216c-9.728-2.56-16.896-4.096-21.504-5.12-9.728-1.024-16.384 0.512-19.456 4.608-3.072 4.096-4.096 11.264-2.56 20.992 0.512 5.12 2.56 12.8 5.12 23.04s5.632 20.48 8.704 31.232c3.072 10.752 6.144 20.48 8.704 29.696 3.072 9.216 5.12 15.36 7.168 18.944 2.048 5.12 4.608 10.24 7.168 14.336s6.656 9.216 11.776 14.336c2.048 2.048 7.168 7.68 15.36 16.384s41.472 42.496 53.248 54.784l39.424 41.472 44.032 46.08 112.64 117.248 102.4-103.936-114.176-119.808z m183.296 193.536c-5.632-5.632-10.24-10.752-14.336-14.848l-11.264-11.264c-3.584-3.584-7.168-7.168-10.24-9.728l-101.888 103.936c5.632 5.12 11.776 11.264 19.456 18.944 7.68 7.168 13.824 12.8 18.432 17.408 6.144 5.12 12.8 8.704 19.456 10.752 6.144 2.048 12.288 3.072 18.432 3.072h1.536c3.072 0 6.656-0.512 9.728-1.024h-0.512 0.512c13.824-2.56 28.16-9.728 40.448-21.504 6.656-6.656 12.288-13.824 16.384-21.504 6.144-11.264 8.704-23.04 8.192-33.28v-4.096c0-6.144-1.024-12.288-3.584-18.432-2.048-6.656-5.632-12.8-10.752-18.432z"  horiz-adv-x="1024" />

    
    <glyph glyph-name="add11" unicode="&#58905;" d="M510.12507762-71.58469632000003c-250.93545643 0-454.35920043 203.46473813-454.35920043 454.43255751S259.18962119 837.26531584 510.12507762 837.26531584c250.93761365 0 454.36135765-203.44963527 454.36135765-454.41745465S761.06269127-71.58469632000003 510.12507762-71.58469632000003zM510.12507762 780.4652908099999c-219.57095083 0-397.56349099-178.01843029-397.56349099-397.61742962S290.55412565-14.771726790000002 510.12507762-14.771726790000002s397.56349099 178.02058752 397.56349099 397.61958798S729.69602845 780.4652908099999 510.12507762 780.4652908099999zM680.51004643 354.44137643L538.52508957 354.44137643l0-142.00653369c0-15.67685859-12.71452331-28.39569749-28.39785472-28.39569749-15.68333141 0-28.39569749 12.7188389-28.3956975 28.39569749l0 142.00653369-141.98927246 0c-15.68333141 0-28.39785472 12.71668053-28.39785472 28.40648476 0 15.67901582 12.71668053 28.39569749 28.39785472 28.3956975l141.98927246 0 0 142.0130065c0 15.67685859 12.71452331 28.38922467 28.3956975 28.38922468 15.68548864 0 28.39785472-12.71020771 28.39785472-28.38922468l0-142.0130065 141.984958 0c15.68548864 0 28.39785472-12.71668053 28.39785472-28.3956975C708.90790115 367.15805695999995 696.19553507 354.44137643 680.51004643 354.44137643z"  horiz-adv-x="1024" />

    
    <glyph glyph-name="sousuo1" unicode="&#58885;" d="M434.1248 804.278613c-188.946773 0-341.766827-150.903467-341.766827-337.47456s152.820053-337.47456 341.766827-337.47456c188.928 0 341.782187 150.903467 341.782187 337.47456S623.054507 804.278613 434.1248 804.278613z m0-600.093013c-146.817707 0-265.954987 117.664427-265.954987 262.62016 0 144.971093 119.13728 262.62016 265.954987 262.62016 146.798933 0 265.936213-117.649067 265.936213-262.62016 0.001707-144.955733-119.135573-262.62016-265.936213-262.62016z m-21.661013 459.874987c-98.688 0-178.107733-78.426453-178.107734-175.86688 0-19.013973 15.645013-35.648853 36.092587-35.648854 19.269973 0 36.109653 15.455573 36.109653 35.648854 0 58.217813 48.129707 105.74848 107.10016 105.74848 19.2512 0 36.109653 15.45728 36.109654 35.648853 0.001707 20.210347-16.856747 34.469547-37.30432 34.469547zM922.709333 34.26816l-168.480426 166.360747c-12.03712 11.864747-32.4864 11.864747-45.755734 0l-15.62624-15.45728c-12.03712-11.864747-12.03712-32.075093 0-45.172054l168.480427-166.326613c12.03712-11.900587 32.484693-11.900587 45.754027 0l15.627946 15.45728c13.233493 11.866453 13.233493 32.075093 0 45.13792z"  horiz-adv-x="1024" />

    
    <glyph glyph-name="jianshao" unicode="&#59303;" d="M705.4 410.6H311c-16.9 0-28.2-11.3-28.2-28.2s11.3-28.2 28.2-28.2h394.4c16.9 0 28.2 11.3 28.2 28.2 0 17-11.3 28.2-28.2 28.2zM511.3 832.8C264 832.8 63.5 632.3 63.5 385S264-62.7 511.3-62.7 959 137.7 959 385 758.6 832.8 511.3 832.8z m-0.3-832.1c-212.1 0-384 171.9-384 384s171.9 384 384 384 384-171.9 384-384-172-384-384-384z"  horiz-adv-x="1024" />

    
    <glyph glyph-name="icon_recharge" unicode="&#59228;" d="M543.15 800.85c-229.86 0-416.87-187-416.87-416.85a415.82 415.82 0 0 1 21.85-133.5 22.4 22.4 0 0 1 42.44 14.35A371.37 371.37 0 0 0 171.08 384c0 205.14 166.91 372 372.07 372S915.2 589.14 915.2 384 748.29 12 543.15 12A371.93 371.93 0 0 0 357 61.77999999999997 22.4 22.4 0 0 1 334.55 23a416.6 416.6 0 0 1 208.6-55.87C773-32.85000000000002 960 154.14 960 384S773 800.85 543.15 800.85zM452 207.66999999999996a22.41 22.41 0 0 1-28.22-34.82c17.94-14.54 39.12-24.27 61.35-29.84l-4.85-51.73a22.44 22.44 0 0 1 20.21-24.41c0.72-0.07 1.42-0.09 2.12-0.09a22.41 22.41 0 0 1 22.29 20.3l4.77 50.83a153.6 153.6 0 0 1 25.33 2.8c56.07 11.4 101.48 52.39 113 102 10.08 43.4-6.76 85.75-46.2 116.2-20.15 15.53-42.37 26.53-63.85 37.17-1.31 0.65-2.59 1.34-3.89 2l14.6 155.79c19.55-5.44 39.05-16 56.62-31.37a22.4 22.4 0 0 1 29.44 33.78c-24.86 21.7-53.14 36.29-81.83 42.78l7.28 77.66a22.41 22.41 0 1 1-44.62 4.2l-7.37-78.67c-1.61-0.13-3.25-0.08-4.86-0.27-57-6.72-102.53-51.49-105.85-104.15-4-63.35 53-105.46 89.14-125.64L489.33 188A112.76 112.76 0 0 0 452 207.66999999999996z m142.4 115.78c25.35-19.56 36-44.6 29.95-70.57-7.63-32.88-39.09-60.31-78.29-68.27a105.77 105.77 0 0 0-12.2-1.75L549.54 350c16.07-8.05 31.46-16.2 44.86-26.55zM462.17 495c2.06 32.74 32.19 56.14 61.71 61.55l-12.62-134.6c-23 15.73-51.09 41.55-49.09 73.05zM343.23 136.63a22.43 22.43 0 0 1-4.85 24.49l-72.64 72.62a22.4 22.4 0 1 1-31.67-31.68l34.43-34.41H86.4a22.4 22.4 0 1 1 0-44.8h182.09l-34.43-34.43a22.4 22.4 0 1 1 31.67-31.67l72.64 72.64a22.41 22.41 0 0 1 4.86 7.24z"  horiz-adv-x="1024" />

    
    <glyph glyph-name="arrow" unicode="&#58943;" d="M512.0846546 312.08750626999995l-185.96006557 185.95688307c-7.80986448 7.81622948-20.48641385 7.81622948-28.29691483 0-7.81686598-7.80986448-7.81686598-20.48641385 0-28.29691483l200.10820474-200.10820473c7.80986448-7.81622948 20.48641385-7.81622948 28.29691483 0l200.10756822 200.10820473c3.90811475 3.90556874 5.86280861 9.02749044 5.86280863 14.14813917s-1.95469387 10.24257043-5.86280863 14.14813915c-7.80986448 7.81622948-20.48641385 7.81622948-28.29691481 0l-185.95942909-185.95688307z"  horiz-adv-x="1024" />

    
    <glyph glyph-name="right" unicode="&#58951;" d="M424.81447411 384.19080162l225.68278312-225.68587303c9.48600769-9.47828293 9.48600769-24.86291885 0-34.34197426-9.47828293-9.48600769-24.86291885-9.48600769-34.34197425 0l-242.85724641 242.8572464c-9.48600769 9.47828293-9.48600769 24.86291885 0 34.34197426l242.85724641 242.85647391c4.73991394 4.74300385 10.95602989 7.11527825 17.17060088 7.11527825s12.43068695-2.37227439 17.1706009-7.11527825c9.48600769-9.47828293 9.48600769-24.86291885 0-34.34197425l-225.68278313-225.6866455z"  horiz-adv-x="1024" />

    
    <glyph glyph-name="kefu2" unicode="&#59349;" d="M512-8.87109375c-52.11914063 0-102.74414063 10.1953125-150.38085938 30.32226563-45.96679688 19.42382813-87.27539063 47.28515625-122.78320312 82.79296874-35.41992188 35.41992188-63.28125 76.72851563-82.79296875 122.78320313-20.12695313 47.63671875-30.32226563 98.26171875-30.32226563 150.38085938 0 85.16601563 65.390625 206.98242188 77.08007813 228.16406249L163.33789062 732.046875c-4.21875 13.44726563-0.52734375 26.80664063 9.58007813 34.89257813 10.10742188 8.17382813 23.99414063 8.87695313 36.2109375 1.93359375l106.96289063-60.8203125c24.609375 11.25 126.03515625 55.546875 195.90820312 55.546875 52.11914063 0 102.74414063-10.1953125 150.38085938-30.32226563 45.96679688-19.42382813 87.27539063-47.28515625 122.78320312-82.79296875 35.41992188-35.41992188 63.28125-76.72851563 82.79296875-122.78320313 20.12695313-47.63671875 30.32226563-98.26171875 30.32226563-150.38085937S888.08398438 274.57617187000005 867.95703125 226.93945312000005c-19.42382813-45.96679688-47.28515625-87.27539063-82.79296875-122.78320312-35.41992188-35.41992188-76.72851563-63.28125-122.78320313-82.79296875C614.74414063 1.32421875 564.11914063-8.87109375 512-8.87109375zM235.75976562 689.06835938l21.79687501-69.96093751c3.77929688-11.953125 2.109375-27.421875-4.13085938-38.3203125-19.86328125-34.98046875-71.45507813-139.74609375-71.45507813-203.37890624C181.97070312 195.38671875 330.06640625 47.37890625 512 47.37890625s330.02929688 148.0078125 330.02929688 330.02929688c0 181.93359375-148.0078125 330.02929688-330.02929688 330.02929687-54.58007813 0-146.33789063-37.96875-177.09960938-52.64648438-12.65625-6.06445313-29.35546875-5.44921875-41.57226562 1.49414063l-57.56835937 32.78320313z m-31.20117187-80.50781251zM527.64453125 366.86132812000005c-22.32421875 0-40.51757813 18.19335938-40.51757813 40.51757813v55.45898438c0 22.32421875 18.19335938 40.51757813 40.51757813 40.51757812 22.32421875 0 40.51757813-18.19335938 40.51757813-40.51757812v-55.45898438c0-22.32421875-18.19335938-40.51757813-40.51757813-40.51757812zM697.44921875 366.86132812000005c-22.32421875 0-40.51757813 18.19335938-40.51757813 40.51757813v55.45898438c0 22.32421875 18.19335938 40.51757813 40.51757813 40.51757812 22.32421875 0 40.51757813-18.19335938 40.51757813-40.51757812v-55.45898438c0-22.32421875-18.28125-40.51757813-40.51757813-40.51757812z"  horiz-adv-x="1024" />

    
    <glyph glyph-name="qq1" unicode="&#58895;" d="M116.435 323.61933333c-33.54000001-78.96400001-38.985-154.297-12.059-168.37000001 18.57199999-9.696 47.68600001 12.382 74.936 52.90900001 10.791-44.15700001 37.493-84.137 75.633-116.21-40.00399999-14.768-66.135-38.886-66.135-66.232 0-44.954 70.709-81.302 157.97800001-81.30200001 78.71599999 0 143.907 29.538 155.93999999 68.37100002 3.232 0.049 15.663 0.049 18.79600001 0 12.083-38.784 77.32399999-68.371 155.989-68.37100002 87.267 0 157.978 36.398 157.97799999 81.30200001 0 27.297-26.105 51.464-66.13499998 66.232 38.089 32.123 64.889 72.053 75.63099998 116.21 27.251-40.527 56.29-62.605 74.887-52.90899999 26.95000001 14.073 21.631 89.456-12.032 168.36999999-26.355 62.058-62.11 107.754-89.457 117.848 0.398 3.929 0.59599999 7.958 0.596 11.935 0 23.968-6.661 46.146-18.04899999 64.19600001 0.199 1.393 0.199 2.834 0.19899999 4.22699998 0 11.038-2.63600002 21.381-7.114 30.33200001-6.90899999 161.309-111.92999999 289.402-281.866 289.402-170.03599998 0-275.106-128.093-281.94299999-289.402-4.525-9.001-7.135-19.343-7.13500001-30.33200001 0-1.393 0.099-2.835 0.15000001-4.22699998-11.288-18.05-17.951-40.178-17.95100001-64.19600001 0-3.978 0.15-7.955 0.498-11.935-27.151-10.094-63.02799998-55.841-89.333-117.848z"  horiz-adv-x="1024" />

    
    </font>
</defs>
</svg>
